<?xml version="1.0" encoding="UTF-8" standalone="no"?>
<!DOCTYPE svg PUBLIC "-//W3C//DTD SVG 1.1//EN"
 "http://www.w3.org/Graphics/SVG/1.1/DTD/svg11.dtd">
<!-- Generated by graphviz version 14.0.5 (0)
 -->
<!-- Title: C2MIR_Pipeline Pages: 1 -->
<svg width="894pt" height="101pt"
 viewBox="0.00 0.00 894.00 101.00" xmlns="http://www.w3.org/2000/svg" xmlns:xlink="http://www.w3.org/1999/xlink">
<g id="graph0" class="graph" transform="scale(1 1) rotate(0) translate(4 97)">
<title>C2MIR_Pipeline</title>
<polygon fill="white" stroke="none" points="-4,4 -4,-97 889.95,-97 889.95,4 -4,4"/>
<g id="clust1" class="cluster">
<title>cluster_c2mir</title>
<polygon fill="none" stroke="#cccccc" stroke-dasharray="5,2" points="129.42,-8 129.42,-85 798.92,-85 798.92,-8 129.42,-8"/>
<text xml:space="preserve" text-anchor="middle" x="464.17" y="-67.7" font-family="Times,serif" font-size="14.00">C2MIR (mir/c2mir/c2mir.c)</text>
</g>
<!-- CSource -->
<g id="node1" class="node">
<title>CSource</title>
<ellipse fill="#fff3e0" stroke="#333333" cx="50.21" cy="-34" rx="50.21" ry="18"/>
<text xml:space="preserve" text-anchor="middle" x="50.21" y="-30.5" font-family="Arial" font-size="10.00">C Source Code</text>
</g>
<!-- Lexer -->
<g id="node3" class="node">
<title>Lexer</title>
<path fill="#e8f5e9" stroke="#333333" d="M232.17,-52C232.17,-52 149.42,-52 149.42,-52 143.42,-52 137.42,-46 137.42,-40 137.42,-40 137.42,-28 137.42,-28 137.42,-22 143.42,-16 149.42,-16 149.42,-16 232.17,-16 232.17,-16 238.17,-16 244.17,-22 244.17,-28 244.17,-28 244.17,-40 244.17,-40 244.17,-46 238.17,-52 232.17,-52"/>
<text xml:space="preserve" text-anchor="middle" x="190.8" y="-36.5" font-family="Arial" font-size="10.00">Lexer / Preprocessor</text>
<text xml:space="preserve" text-anchor="middle" x="190.8" y="-24.5" font-family="Arial" font-size="10.00">(Token Stream)</text>
</g>
<!-- CSource&#45;&gt;Lexer -->
<g id="edge4" class="edge">
<title>CSource&#45;&gt;Lexer</title>
<path fill="none" stroke="#666666" stroke-width="1.2" d="M100.85,-34C108.88,-34 117.28,-34 125.59,-34"/>
<polygon fill="#666666" stroke="#666666" stroke-width="1.2" points="125.41,-37.5 135.41,-34 125.41,-30.5 125.41,-37.5"/>
</g>
<!-- MIR_IR -->
<g id="node2" class="node">
<title>MIR_IR</title>
<ellipse fill="#e1f5fe" stroke="#333333" cx="856.94" cy="-34" rx="29.01" ry="18"/>
<text xml:space="preserve" text-anchor="middle" x="856.94" y="-30.5" font-family="Arial" font-size="10.00">MIR IR</text>
</g>
<!-- Parser -->
<g id="node4" class="node">
<title>Parser</title>
<path fill="#fff9c4" stroke="#333333" d="M424.42,-52C424.42,-52 342.42,-52 342.42,-52 336.42,-52 330.42,-46 330.42,-40 330.42,-40 330.42,-28 330.42,-28 330.42,-22 336.42,-16 342.42,-16 342.42,-16 424.42,-16 424.42,-16 430.42,-16 436.42,-22 436.42,-28 436.42,-28 436.42,-40 436.42,-40 436.42,-46 430.42,-52 424.42,-52"/>
<text xml:space="preserve" text-anchor="middle" x="383.42" y="-36.5" font-family="Arial" font-size="10.00">Parser</text>
<text xml:space="preserve" text-anchor="middle" x="383.42" y="-24.5" font-family="Arial" font-size="10.00">(Recursive Descent)</text>
</g>
<!-- Lexer&#45;&gt;Parser -->
<g id="edge1" class="edge">
<title>Lexer&#45;&gt;Parser</title>
<path fill="none" stroke="#666666" stroke-width="1.2" d="M244.64,-34C267.56,-34 294.59,-34 318.61,-34"/>
<polygon fill="#666666" stroke="#666666" stroke-width="1.2" points="318.32,-37.5 328.32,-34 318.32,-30.5 318.32,-37.5"/>
<text xml:space="preserve" text-anchor="middle" x="287.3" y="-37.95" font-family="Times,serif" font-size="14.00">Tokens</text>
</g>
<!-- Context -->
<g id="node5" class="node">
<title>Context</title>
<path fill="#ffebee" stroke="#333333" d="M585.92,-52C585.92,-52 512.92,-52 512.92,-52 506.92,-52 500.92,-46 500.92,-40 500.92,-40 500.92,-28 500.92,-28 500.92,-22 506.92,-16 512.92,-16 512.92,-16 585.92,-16 585.92,-16 591.92,-16 597.92,-22 597.92,-28 597.92,-28 597.92,-40 597.92,-40 597.92,-46 591.92,-52 585.92,-52"/>
<text xml:space="preserve" text-anchor="middle" x="549.42" y="-36.5" font-family="Arial" font-size="10.00">Semantic Analysis</text>
<text xml:space="preserve" text-anchor="middle" x="549.42" y="-24.5" font-family="Arial" font-size="10.00">(Symbol Tables)</text>
</g>
<!-- Parser&#45;&gt;Context -->
<g id="edge2" class="edge">
<title>Parser&#45;&gt;Context</title>
<path fill="none" stroke="#666666" stroke-width="1.2" d="M436.76,-34C453.37,-34 471.85,-34 488.92,-34"/>
<polygon fill="#666666" stroke="#666666" stroke-width="1.2" points="488.65,-37.5 498.65,-34 488.65,-30.5 488.65,-37.5"/>
<text xml:space="preserve" text-anchor="middle" x="468.67" y="-37.95" font-family="Times,serif" font-size="14.00">AST</text>
</g>
<!-- Generator -->
<g id="node6" class="node">
<title>Generator</title>
<path fill="#e1f5fe" stroke="#333333" d="M778.92,-52C778.92,-52 722.42,-52 722.42,-52 716.42,-52 710.42,-46 710.42,-40 710.42,-40 710.42,-28 710.42,-28 710.42,-22 716.42,-16 722.42,-16 722.42,-16 778.92,-16 778.92,-16 784.92,-16 790.92,-22 790.92,-28 790.92,-28 790.92,-40 790.92,-40 790.92,-46 784.92,-52 778.92,-52"/>
<text xml:space="preserve" text-anchor="middle" x="750.67" y="-36.5" font-family="Arial" font-size="10.00">MIR Generator</text>
<text xml:space="preserve" text-anchor="middle" x="750.67" y="-24.5" font-family="Arial" font-size="10.00">(AST to IR)</text>
</g>
<!-- Context&#45;&gt;Generator -->
<g id="edge3" class="edge">
<title>Context&#45;&gt;Generator</title>
<path fill="none" stroke="#666666" stroke-width="1.2" d="M598.4,-34C628.59,-34 667.53,-34 698.34,-34"/>
<polygon fill="#666666" stroke="#666666" stroke-width="1.2" points="698.33,-37.5 708.33,-34 698.33,-30.5 698.33,-37.5"/>
<text xml:space="preserve" text-anchor="middle" x="654.17" y="-37.95" font-family="Times,serif" font-size="14.00">Typed AST</text>
</g>
<!-- Generator&#45;&gt;MIR_IR -->
<g id="edge5" class="edge">
<title>Generator&#45;&gt;MIR_IR</title>
<path fill="none" stroke="#666666" stroke-width="1.2" d="M791.39,-34C799.41,-34 807.86,-34 815.89,-34"/>
<polygon fill="#666666" stroke="#666666" stroke-width="1.2" points="815.86,-37.5 825.86,-34 815.86,-30.5 815.86,-37.5"/>
</g>
</g>
</svg>
