<?xml version="1.0" encoding="UTF-8" standalone="no"?>
<!DOCTYPE svg PUBLIC "-//W3C//DTD SVG 1.1//EN"
 "http://www.w3.org/Graphics/SVG/1.1/DTD/svg11.dtd">
<!-- Generated by graphviz version 14.0.5 (0)
 -->
<!-- Title: MIR_Optimization_Pipeline Pages: 1 -->
<svg width="1176pt" height="657pt"
 viewBox="0.00 0.00 1176.00 657.00" xmlns="http://www.w3.org/2000/svg" xmlns:xlink="http://www.w3.org/1999/xlink">
<g id="graph0" class="graph" transform="scale(1 1) rotate(0) translate(4 653)">
<title>MIR_Optimization_Pipeline</title>
<polygon fill="white" stroke="none" points="-4,4 -4,-653 1172,-653 1172,4 -4,4"/>
<g id="clust1" class="cluster">
<title>cluster_frontend</title>
<polygon fill="none" stroke="#cccccc" stroke-dasharray="5,2" points="10,-527.75 10,-605 139,-605 139,-527.75 10,-527.75"/>
<text xml:space="preserve" text-anchor="middle" x="74.5" y="-587.7" font-family="Times,serif" font-size="14.00">Frontend / Core</text>
</g>
<g id="clust2" class="cluster">
<title>cluster_middle_end</title>
<polygon fill="none" stroke="#cccccc" stroke-dasharray="5,2" points="10,-293.25 10,-519.75 726,-519.75 726,-293.25 10,-293.25"/>
<text xml:space="preserve" text-anchor="middle" x="368" y="-502.45" font-family="Times,serif" font-size="14.00">Optimizer (Middle&#45;End)</text>
</g>
<g id="clust4" class="cluster">
<title>cluster_ssa_opts</title>
<polygon fill="#fafafa" stroke="#eeeeee" points="18,-365.25 18,-442.5 718,-442.5 718,-365.25 18,-365.25"/>
<text xml:space="preserve" text-anchor="middle" x="368" y="-425.2" font-family="Times,serif" font-size="14.00">SSA Optimizations</text>
</g>
<g id="clust7" class="cluster">
<title>cluster_backend</title>
<polygon fill="none" stroke="#cccccc" stroke-dasharray="5,2" points="602,-64 602,-285.25 1158,-285.25 1158,-64 602,-64"/>
<text xml:space="preserve" text-anchor="middle" x="880" y="-267.95" font-family="Times,serif" font-size="14.00">Backend (Target&#45;Specific)</text>
</g>
<!-- MIR -->
<g id="node1" class="node">
<title>MIR</title>
<ellipse fill="#e1f5fe" stroke="#333333" cx="72" cy="-631" rx="72" ry="18"/>
<text xml:space="preserve" text-anchor="middle" x="72" y="-627.5" font-family="Arial" font-size="10.00">MIR IR</text>
</g>
<!-- Simplify -->
<g id="node3" class="node">
<title>Simplify</title>
<g id="a_node3"><a xlink:href="19_mir_implementation.html#the-simplifier-s-toolbox-simplify-func" xlink:title="Simplify\n(Lowering MIR)">
<path fill="#e8f5e9" stroke="#333333" d="M114,-571.75C114,-571.75 30,-571.75 30,-571.75 24,-571.75 18,-565.75 18,-559.75 18,-559.75 18,-547.75 18,-547.75 18,-541.75 24,-535.75 30,-535.75 30,-535.75 114,-535.75 114,-535.75 120,-535.75 126,-541.75 126,-547.75 126,-547.75 126,-559.75 126,-559.75 126,-565.75 120,-571.75 114,-571.75"/>
<text xml:space="preserve" text-anchor="middle" x="72" y="-556.25" font-family="Arial" font-size="10.00">Simplify</text>
<text xml:space="preserve" text-anchor="middle" x="72" y="-544.25" font-family="Arial" font-size="10.00">(Lowering MIR)</text>
</a>
</g>
</g>
<!-- MIR&#45;&gt;Simplify -->
<g id="edge1" class="edge">
<title>MIR&#45;&gt;Simplify</title>
<path fill="none" stroke="#666666" stroke-width="1.2" d="M72,-612.69C72,-612.69 72,-584.01 72,-584.01"/>
<polygon fill="#666666" stroke="#666666" stroke-width="1.2" points="75.5,-584.01 72,-574.01 68.5,-584.01 75.5,-584.01"/>
</g>
<!-- MachineCode -->
<g id="node2" class="node">
<title>MachineCode</title>
<ellipse fill="#fff3e0" stroke="#333333" cx="1096" cy="-18" rx="72" ry="18"/>
<text xml:space="preserve" text-anchor="middle" x="1096" y="-14.5" font-family="Arial" font-size="10.00">Native Machine Code</text>
</g>
<!-- BuildCFG -->
<g id="node4" class="node">
<title>BuildCFG</title>
<g id="a_node4"><a xlink:href="#the-architect-s-blueprint-build-func-cfg" xlink:title="Build CFG">
<path fill="#f9f9f9" stroke="#333333" d="M114,-486.5C114,-486.5 30,-486.5 30,-486.5 24,-486.5 18,-480.5 18,-474.5 18,-474.5 18,-462.5 18,-462.5 18,-456.5 24,-450.5 30,-450.5 30,-450.5 114,-450.5 114,-450.5 120,-450.5 126,-456.5 126,-462.5 126,-462.5 126,-474.5 126,-474.5 126,-480.5 120,-486.5 114,-486.5"/>
<text xml:space="preserve" text-anchor="middle" x="72" y="-465" font-family="Arial" font-size="10.00">Build CFG</text>
</a>
</g>
</g>
<!-- Simplify&#45;&gt;BuildCFG -->
<g id="edge2" class="edge">
<title>Simplify&#45;&gt;BuildCFG</title>
<path fill="none" stroke="#666666" stroke-width="1.2" d="M72,-535.25C72,-535.25 72,-498.78 72,-498.78"/>
<polygon fill="#666666" stroke="#666666" stroke-width="1.2" points="75.5,-498.78 72,-488.78 68.5,-498.78 75.5,-498.78"/>
</g>
<!-- BuildSSA -->
<g id="node5" class="node">
<title>BuildSSA</title>
<g id="a_node5"><a xlink:href="#the-single-truth-ssa-construction" xlink:title="Build SSA">
<path fill="#f9f9f9" stroke="#333333" d="M258,-486.5C258,-486.5 174,-486.5 174,-486.5 168,-486.5 162,-480.5 162,-474.5 162,-474.5 162,-462.5 162,-462.5 162,-456.5 168,-450.5 174,-450.5 174,-450.5 258,-450.5 258,-450.5 264,-450.5 270,-456.5 270,-462.5 270,-462.5 270,-474.5 270,-474.5 270,-480.5 264,-486.5 258,-486.5"/>
<text xml:space="preserve" text-anchor="middle" x="216" y="-465" font-family="Arial" font-size="10.00">Build SSA</text>
</a>
</g>
</g>
<!-- BuildCFG&#45;&gt;BuildSSA -->
<g id="edge3" class="edge">
<title>BuildCFG&#45;&gt;BuildSSA</title>
<path fill="none" stroke="#666666" stroke-width="1.2" d="M126.44,-469C126.44,-469 150.14,-469 150.14,-469"/>
<polygon fill="#666666" stroke="#666666" stroke-width="1.2" points="150.14,-472.5 160.14,-469 150.14,-465.5 150.14,-472.5"/>
</g>
<!-- AddrTrans -->
<g id="node6" class="node">
<title>AddrTrans</title>
<g id="a_node6"><a xlink:href="#from-abstract-to-concrete-address-transformation" xlink:title="Address\nTransformation">
<path fill="#f9f9f9" stroke="#333333" d="M402,-486.5C402,-486.5 318,-486.5 318,-486.5 312,-486.5 306,-480.5 306,-474.5 306,-474.5 306,-462.5 306,-462.5 306,-456.5 312,-450.5 318,-450.5 318,-450.5 402,-450.5 402,-450.5 408,-450.5 414,-456.5 414,-462.5 414,-462.5 414,-474.5 414,-474.5 414,-480.5 408,-486.5 402,-486.5"/>
<text xml:space="preserve" text-anchor="middle" x="360" y="-471" font-family="Arial" font-size="10.00">Address</text>
<text xml:space="preserve" text-anchor="middle" x="360" y="-459" font-family="Arial" font-size="10.00">Transformation</text>
</a>
</g>
</g>
<!-- BuildSSA&#45;&gt;AddrTrans -->
<g id="edge4" class="edge">
<title>BuildSSA&#45;&gt;AddrTrans</title>
<path fill="none" stroke="#666666" stroke-width="1.2" d="M270.44,-469C270.44,-469 294.14,-469 294.14,-469"/>
<polygon fill="#666666" stroke="#666666" stroke-width="1.2" points="294.14,-472.5 304.14,-469 294.14,-465.5 294.14,-472.5"/>
</g>
<!-- BlockCloning -->
<g id="node7" class="node">
<title>BlockCloning</title>
<g id="a_node7"><a xlink:href="#path-specialization-basic-block-cloning" xlink:title="Block Cloning">
<path fill="#f9f9f9" stroke="#333333" d="M546,-486.5C546,-486.5 462,-486.5 462,-486.5 456,-486.5 450,-480.5 450,-474.5 450,-474.5 450,-462.5 450,-462.5 450,-456.5 456,-450.5 462,-450.5 462,-450.5 546,-450.5 546,-450.5 552,-450.5 558,-456.5 558,-462.5 558,-462.5 558,-474.5 558,-474.5 558,-480.5 552,-486.5 546,-486.5"/>
<text xml:space="preserve" text-anchor="middle" x="504" y="-465" font-family="Arial" font-size="10.00">Block Cloning</text>
</a>
</g>
</g>
<!-- AddrTrans&#45;&gt;BlockCloning -->
<g id="edge5" class="edge">
<title>AddrTrans&#45;&gt;BlockCloning</title>
<path fill="none" stroke="#666666" stroke-width="1.2" d="M414.44,-469C414.44,-469 438.14,-469 438.14,-469"/>
<polygon fill="#666666" stroke="#666666" stroke-width="1.2" points="438.14,-472.5 448.14,-469 438.14,-465.5 438.14,-472.5"/>
</g>
<!-- GVN -->
<g id="node8" class="node">
<title>GVN</title>
<g id="a_node8"><a xlink:href="#the-grand-library-global-value-numbering-gvn" xlink:title="GVN / CP / RLE">
<path fill="#f9f9f9" stroke="#333333" d="M122,-409.25C122,-409.25 38,-409.25 38,-409.25 32,-409.25 26,-403.25 26,-397.25 26,-397.25 26,-385.25 26,-385.25 26,-379.25 32,-373.25 38,-373.25 38,-373.25 122,-373.25 122,-373.25 128,-373.25 134,-379.25 134,-385.25 134,-385.25 134,-397.25 134,-397.25 134,-403.25 128,-409.25 122,-409.25"/>
<text xml:space="preserve" text-anchor="middle" x="80" y="-387.75" font-family="Arial" font-size="10.00">GVN / CP / RLE</text>
</a>
</g>
</g>
<!-- BlockCloning&#45;&gt;GVN -->
<g id="edge6" class="edge">
<title>BlockCloning&#45;&gt;GVN</title>
<path fill="none" stroke="#666666" stroke-width="1.2" d="M454,-450.15C454,-440.24 454,-430 454,-430 454,-430 130,-430 130,-430 130,-430 130,-421.53 130,-421.53"/>
<polygon fill="#666666" stroke="#666666" stroke-width="1.2" points="133.5,-421.53 130,-411.53 126.5,-421.53 133.5,-421.53"/>
</g>
<!-- CopyProp -->
<g id="node9" class="node">
<title>CopyProp</title>
<g id="a_node9"><a xlink:href="#the-vanishing-act-copy-propagation" xlink:title="Copy Propagation">
<path fill="#f9f9f9" stroke="#333333" d="M266,-409.25C266,-409.25 182,-409.25 182,-409.25 176,-409.25 170,-403.25 170,-397.25 170,-397.25 170,-385.25 170,-385.25 170,-379.25 176,-373.25 182,-373.25 182,-373.25 266,-373.25 266,-373.25 272,-373.25 278,-379.25 278,-385.25 278,-385.25 278,-397.25 278,-397.25 278,-403.25 272,-409.25 266,-409.25"/>
<text xml:space="preserve" text-anchor="middle" x="224" y="-387.75" font-family="Arial" font-size="10.00">Copy Propagation</text>
</a>
</g>
</g>
<!-- GVN&#45;&gt;CopyProp -->
<g id="edge7" class="edge">
<title>GVN&#45;&gt;CopyProp</title>
<path fill="none" stroke="#666666" stroke-width="1.2" d="M134.44,-391C134.44,-391 158.14,-391 158.14,-391"/>
<polygon fill="#666666" stroke="#666666" stroke-width="1.2" points="158.14,-394.5 168.14,-391 158.14,-387.5 158.14,-394.5"/>
</g>
<!-- DSE -->
<g id="node10" class="node">
<title>DSE</title>
<g id="a_node10"><a xlink:href="#cleaning-the-warehouses-dead-store-elimination-dse" xlink:title="Dead Store\nElimination">
<path fill="#f9f9f9" stroke="#333333" d="M410,-409.25C410,-409.25 326,-409.25 326,-409.25 320,-409.25 314,-403.25 314,-397.25 314,-397.25 314,-385.25 314,-385.25 314,-379.25 320,-373.25 326,-373.25 326,-373.25 410,-373.25 410,-373.25 416,-373.25 422,-379.25 422,-385.25 422,-385.25 422,-397.25 422,-397.25 422,-403.25 416,-409.25 410,-409.25"/>
<text xml:space="preserve" text-anchor="middle" x="368" y="-393.75" font-family="Arial" font-size="10.00">Dead Store</text>
<text xml:space="preserve" text-anchor="middle" x="368" y="-381.75" font-family="Arial" font-size="10.00">Elimination</text>
</a>
</g>
</g>
<!-- CopyProp&#45;&gt;DSE -->
<g id="edge8" class="edge">
<title>CopyProp&#45;&gt;DSE</title>
<path fill="none" stroke="#666666" stroke-width="1.2" d="M278.44,-391C278.44,-391 302.14,-391 302.14,-391"/>
<polygon fill="#666666" stroke="#666666" stroke-width="1.2" points="302.14,-394.5 312.14,-391 302.14,-387.5 302.14,-394.5"/>
</g>
<!-- DCE1 -->
<g id="node11" class="node">
<title>DCE1</title>
<path fill="#f9f9f9" stroke="#333333" d="M554,-409.25C554,-409.25 470,-409.25 470,-409.25 464,-409.25 458,-403.25 458,-397.25 458,-397.25 458,-385.25 458,-385.25 458,-379.25 464,-373.25 470,-373.25 470,-373.25 554,-373.25 554,-373.25 560,-373.25 566,-379.25 566,-385.25 566,-385.25 566,-397.25 566,-397.25 566,-403.25 560,-409.25 554,-409.25"/>
<text xml:space="preserve" text-anchor="middle" x="512" y="-393.75" font-family="Arial" font-size="10.00">Dead Code</text>
<text xml:space="preserve" text-anchor="middle" x="512" y="-381.75" font-family="Arial" font-size="10.00">Elimination</text>
</g>
<!-- DSE&#45;&gt;DCE1 -->
<g id="edge9" class="edge">
<title>DSE&#45;&gt;DCE1</title>
<path fill="none" stroke="#666666" stroke-width="1.2" d="M422.44,-391C422.44,-391 446.14,-391 446.14,-391"/>
<polygon fill="#666666" stroke="#666666" stroke-width="1.2" points="446.14,-394.5 456.14,-391 446.14,-387.5 446.14,-394.5"/>
</g>
<!-- LICM -->
<g id="node12" class="node">
<title>LICM</title>
<g id="a_node12"><a xlink:href="#escaping-the-loop-loop-invariant-code-motion-licm" xlink:title="Loop Invariant\nMotion">
<path fill="#f9f9f9" stroke="#333333" d="M698,-409.25C698,-409.25 614,-409.25 614,-409.25 608,-409.25 602,-403.25 602,-397.25 602,-397.25 602,-385.25 602,-385.25 602,-379.25 608,-373.25 614,-373.25 614,-373.25 698,-373.25 698,-373.25 704,-373.25 710,-379.25 710,-385.25 710,-385.25 710,-397.25 710,-397.25 710,-403.25 704,-409.25 698,-409.25"/>
<text xml:space="preserve" text-anchor="middle" x="656" y="-393.75" font-family="Arial" font-size="10.00">Loop Invariant</text>
<text xml:space="preserve" text-anchor="middle" x="656" y="-381.75" font-family="Arial" font-size="10.00">Motion</text>
</a>
</g>
</g>
<!-- DCE1&#45;&gt;LICM -->
<g id="edge10" class="edge">
<title>DCE1&#45;&gt;LICM</title>
<path fill="none" stroke="#666666" stroke-width="1.2" d="M566.44,-391C566.44,-391 590.14,-391 590.14,-391"/>
<polygon fill="#666666" stroke="#666666" stroke-width="1.2" points="590.14,-394.5 600.14,-391 590.14,-387.5 590.14,-394.5"/>
</g>
<!-- PressureRelief -->
<g id="node13" class="node">
<title>PressureRelief</title>
<path fill="#f9f9f9" stroke="#333333" d="M274,-337.25C274,-337.25 190,-337.25 190,-337.25 184,-337.25 178,-331.25 178,-325.25 178,-325.25 178,-313.25 178,-313.25 178,-307.25 184,-301.25 190,-301.25 190,-301.25 274,-301.25 274,-301.25 280,-301.25 286,-307.25 286,-313.25 286,-313.25 286,-325.25 286,-325.25 286,-331.25 280,-337.25 274,-337.25"/>
<text xml:space="preserve" text-anchor="middle" x="232" y="-315.75" font-family="Arial" font-size="10.00">Pressure Relief</text>
</g>
<!-- LICM&#45;&gt;PressureRelief -->
<g id="edge11" class="edge">
<title>LICM&#45;&gt;PressureRelief</title>
<path fill="none" stroke="#666666" stroke-width="1.2" d="M606,-373.12C606,-364.06 606,-355 606,-355 606,-355 282,-355 282,-355 282,-355 282,-349.36 282,-349.36"/>
<polygon fill="#666666" stroke="#666666" stroke-width="1.2" points="285.5,-349.36 282,-339.36 278.5,-349.36 285.5,-349.36"/>
</g>
<!-- SSACombine -->
<g id="node14" class="node">
<title>SSACombine</title>
<g id="a_node14"><a xlink:href="#the-merging-pass-instruction-combining-ssa-combine" xlink:title="SSA Combine">
<path fill="#f9f9f9" stroke="#333333" d="M418,-337.25C418,-337.25 334,-337.25 334,-337.25 328,-337.25 322,-331.25 322,-325.25 322,-325.25 322,-313.25 322,-313.25 322,-307.25 328,-301.25 334,-301.25 334,-301.25 418,-301.25 418,-301.25 424,-301.25 430,-307.25 430,-313.25 430,-313.25 430,-325.25 430,-325.25 430,-331.25 424,-337.25 418,-337.25"/>
<text xml:space="preserve" text-anchor="middle" x="376" y="-315.75" font-family="Arial" font-size="10.00">SSA Combine</text>
</a>
</g>
</g>
<!-- PressureRelief&#45;&gt;SSACombine -->
<g id="edge12" class="edge">
<title>PressureRelief&#45;&gt;SSACombine</title>
<path fill="none" stroke="#666666" stroke-width="1.2" d="M286.44,-319C286.44,-319 310.14,-319 310.14,-319"/>
<polygon fill="#666666" stroke="#666666" stroke-width="1.2" points="310.14,-322.5 320.14,-319 310.14,-315.5 310.14,-322.5"/>
</g>
<!-- OutSSA -->
<g id="node15" class="node">
<title>OutSSA</title>
<g id="a_node15"><a xlink:href="#the-final-handover-conventional-ssa-make-conventional-ssa" xlink:title="Out of SSA">
<path fill="#f9f9f9" stroke="#333333" d="M562,-337.25C562,-337.25 478,-337.25 478,-337.25 472,-337.25 466,-331.25 466,-325.25 466,-325.25 466,-313.25 466,-313.25 466,-307.25 472,-301.25 478,-301.25 478,-301.25 562,-301.25 562,-301.25 568,-301.25 574,-307.25 574,-313.25 574,-313.25 574,-325.25 574,-325.25 574,-331.25 568,-337.25 562,-337.25"/>
<text xml:space="preserve" text-anchor="middle" x="520" y="-315.75" font-family="Arial" font-size="10.00">Out of SSA</text>
</a>
</g>
</g>
<!-- SSACombine&#45;&gt;OutSSA -->
<g id="edge13" class="edge">
<title>SSACombine&#45;&gt;OutSSA</title>
<path fill="none" stroke="#666666" stroke-width="1.2" d="M430.44,-319C430.44,-319 454.14,-319 454.14,-319"/>
<polygon fill="#666666" stroke="#666666" stroke-width="1.2" points="454.14,-322.5 464.14,-319 454.14,-315.5 454.14,-322.5"/>
</g>
<!-- JumpOpts -->
<g id="node16" class="node">
<title>JumpOpts</title>
<g id="a_node16"><a xlink:href="#the-path-smoother-jump-optimization-jump-opt" xlink:title="Jump Opts">
<path fill="#f9f9f9" stroke="#333333" d="M706,-337.25C706,-337.25 622,-337.25 622,-337.25 616,-337.25 610,-331.25 610,-325.25 610,-325.25 610,-313.25 610,-313.25 610,-307.25 616,-301.25 622,-301.25 622,-301.25 706,-301.25 706,-301.25 712,-301.25 718,-307.25 718,-313.25 718,-313.25 718,-325.25 718,-325.25 718,-331.25 712,-337.25 706,-337.25"/>
<text xml:space="preserve" text-anchor="middle" x="664" y="-315.75" font-family="Arial" font-size="10.00">Jump Opts</text>
</a>
</g>
</g>
<!-- OutSSA&#45;&gt;JumpOpts -->
<g id="edge14" class="edge">
<title>OutSSA&#45;&gt;JumpOpts</title>
<path fill="none" stroke="#666666" stroke-width="1.2" d="M574.44,-319C574.44,-319 598.14,-319 598.14,-319"/>
<polygon fill="#666666" stroke="#666666" stroke-width="1.2" points="598.14,-322.5 608.14,-319 598.14,-315.5 598.14,-322.5"/>
</g>
<!-- Machinize -->
<g id="node17" class="node">
<title>Machinize</title>
<g id="a_node17"><a xlink:href="#handover-to-the-metal-target-translation" xlink:title="Machinize">
<path fill="#fff9c4" stroke="#333333" d="M706,-252C706,-252 622,-252 622,-252 616,-252 610,-246 610,-240 610,-240 610,-228 610,-228 610,-222 616,-216 622,-216 622,-216 706,-216 706,-216 712,-216 718,-222 718,-228 718,-228 718,-240 718,-240 718,-246 712,-252 706,-252"/>
<text xml:space="preserve" text-anchor="middle" x="664" y="-230.5" font-family="Arial" font-size="10.00">Machinize</text>
</a>
</g>
</g>
<!-- JumpOpts&#45;&gt;Machinize -->
<g id="edge15" class="edge">
<title>JumpOpts&#45;&gt;Machinize</title>
<path fill="none" stroke="#666666" stroke-width="1.2" d="M664,-300.75C664,-300.75 664,-264.28 664,-264.28"/>
<polygon fill="#666666" stroke="#666666" stroke-width="1.2" points="667.5,-264.28 664,-254.28 660.5,-264.28 667.5,-264.28"/>
</g>
<!-- BuildLive -->
<g id="node18" class="node">
<title>BuildLive</title>
<g id="a_node18"><a xlink:href="#mapping-existence-live-range-analysis" xlink:title="Build Live Info">
<path fill="#f9f9f9" stroke="#333333" d="M850,-252C850,-252 766,-252 766,-252 760,-252 754,-246 754,-240 754,-240 754,-228 754,-228 754,-222 760,-216 766,-216 766,-216 850,-216 850,-216 856,-216 862,-222 862,-228 862,-228 862,-240 862,-240 862,-246 856,-252 850,-252"/>
<text xml:space="preserve" text-anchor="middle" x="808" y="-230.5" font-family="Arial" font-size="10.00">Build Live Info</text>
</a>
</g>
</g>
<!-- Machinize&#45;&gt;BuildLive -->
<g id="edge16" class="edge">
<title>Machinize&#45;&gt;BuildLive</title>
<path fill="none" stroke="#666666" stroke-width="1.2" d="M718.44,-234C718.44,-234 742.14,-234 742.14,-234"/>
<polygon fill="#666666" stroke="#666666" stroke-width="1.2" points="742.14,-237.5 752.14,-234 742.14,-230.5 742.14,-237.5"/>
</g>
<!-- BuildConflicts -->
<g id="node19" class="node">
<title>BuildConflicts</title>
<g id="a_node19"><a xlink:href="#aggressive-register-coalescing-coalesce" xlink:title="Build Register\nConflicts">
<path fill="#f9f9f9" stroke="#333333" d="M994,-252C994,-252 910,-252 910,-252 904,-252 898,-246 898,-240 898,-240 898,-228 898,-228 898,-222 904,-216 910,-216 910,-216 994,-216 994,-216 1000,-216 1006,-222 1006,-228 1006,-228 1006,-240 1006,-240 1006,-246 1000,-252 994,-252"/>
<text xml:space="preserve" text-anchor="middle" x="952" y="-236.5" font-family="Arial" font-size="10.00">Build Register</text>
<text xml:space="preserve" text-anchor="middle" x="952" y="-224.5" font-family="Arial" font-size="10.00">Conflicts</text>
</a>
</g>
</g>
<!-- BuildLive&#45;&gt;BuildConflicts -->
<g id="edge17" class="edge">
<title>BuildLive&#45;&gt;BuildConflicts</title>
<path fill="none" stroke="#666666" stroke-width="1.2" d="M862.44,-234C862.44,-234 886.14,-234 886.14,-234"/>
<polygon fill="#666666" stroke="#666666" stroke-width="1.2" points="886.14,-237.5 896.14,-234 886.14,-230.5 886.14,-237.5"/>
</g>
<!-- Coalesce -->
<g id="node20" class="node">
<title>Coalesce</title>
<path fill="#f9f9f9" stroke="#333333" d="M706,-180C706,-180 622,-180 622,-180 616,-180 610,-174 610,-168 610,-168 610,-156 610,-156 610,-150 616,-144 622,-144 622,-144 706,-144 706,-144 712,-144 718,-150 718,-156 718,-156 718,-168 718,-168 718,-174 712,-180 706,-180"/>
<text xml:space="preserve" text-anchor="middle" x="664" y="-158.5" font-family="Arial" font-size="10.00">Coalesce</text>
</g>
<!-- BuildConflicts&#45;&gt;Coalesce -->
<g id="edge18" class="edge">
<title>BuildConflicts&#45;&gt;Coalesce</title>
<path fill="none" stroke="#666666" stroke-width="1.2" d="M952,-215.58C952,-206.72 952,-198 952,-198 952,-198 664,-198 664,-198 664,-198 664,-192.24 664,-192.24"/>
<polygon fill="#666666" stroke="#666666" stroke-width="1.2" points="667.5,-192.24 664,-182.24 660.5,-192.24 667.5,-192.24"/>
</g>
<!-- RA -->
<g id="node21" class="node">
<title>RA</title>
<g id="a_node21"><a xlink:href="#the-allocation-war-linear-scan-ra" xlink:title="Register Allocator\n(Priority Linear Scan)">
<path fill="#ffebee" stroke="#333333" d="M850,-180C850,-180 766,-180 766,-180 760,-180 754,-174 754,-168 754,-168 754,-156 754,-156 754,-150 760,-144 766,-144 766,-144 850,-144 850,-144 856,-144 862,-150 862,-156 862,-156 862,-168 862,-168 862,-174 856,-180 850,-180"/>
<text xml:space="preserve" text-anchor="middle" x="808" y="-164.5" font-family="Arial" font-size="10.00">Register Allocator</text>
<text xml:space="preserve" text-anchor="middle" x="808" y="-152.5" font-family="Arial" font-size="10.00">(Priority Linear Scan)</text>
</a>
</g>
</g>
<!-- Coalesce&#45;&gt;RA -->
<g id="edge19" class="edge">
<title>Coalesce&#45;&gt;RA</title>
<path fill="none" stroke="#666666" stroke-width="1.2" d="M718.44,-162C718.44,-162 742.14,-162 742.14,-162"/>
<polygon fill="#666666" stroke="#666666" stroke-width="1.2" points="742.14,-165.5 752.14,-162 742.14,-158.5 742.14,-165.5"/>
</g>
<!-- Combine -->
<g id="node22" class="node">
<title>Combine</title>
<path fill="#f9f9f9" stroke="#333333" d="M994,-180C994,-180 910,-180 910,-180 904,-180 898,-174 898,-168 898,-168 898,-156 898,-156 898,-150 904,-144 910,-144 910,-144 994,-144 994,-144 1000,-144 1006,-150 1006,-156 1006,-156 1006,-168 1006,-168 1006,-174 1000,-180 994,-180"/>
<text xml:space="preserve" text-anchor="middle" x="952" y="-164.5" font-family="Arial" font-size="10.00">Combine</text>
<text xml:space="preserve" text-anchor="middle" x="952" y="-152.5" font-family="Arial" font-size="10.00">(Code Selection)</text>
</g>
<!-- RA&#45;&gt;Combine -->
<g id="edge20" class="edge">
<title>RA&#45;&gt;Combine</title>
<path fill="none" stroke="#666666" stroke-width="1.2" d="M862.44,-162C862.44,-162 886.14,-162 886.14,-162"/>
<polygon fill="#666666" stroke="#666666" stroke-width="1.2" points="886.14,-165.5 896.14,-162 886.14,-158.5 886.14,-165.5"/>
</g>
<!-- DCE2 -->
<g id="node23" class="node">
<title>DCE2</title>
<path fill="#f9f9f9" stroke="#333333" d="M1138,-180C1138,-180 1054,-180 1054,-180 1048,-180 1042,-174 1042,-168 1042,-168 1042,-156 1042,-156 1042,-150 1048,-144 1054,-144 1054,-144 1138,-144 1138,-144 1144,-144 1150,-150 1150,-156 1150,-156 1150,-168 1150,-168 1150,-174 1144,-180 1138,-180"/>
<text xml:space="preserve" text-anchor="middle" x="1096" y="-164.5" font-family="Arial" font-size="10.00">Dead Code</text>
<text xml:space="preserve" text-anchor="middle" x="1096" y="-152.5" font-family="Arial" font-size="10.00">Elimination</text>
</g>
<!-- Combine&#45;&gt;DCE2 -->
<g id="edge21" class="edge">
<title>Combine&#45;&gt;DCE2</title>
<path fill="none" stroke="#666666" stroke-width="1.2" d="M1006.44,-162C1006.44,-162 1030.14,-162 1030.14,-162"/>
<polygon fill="#666666" stroke="#666666" stroke-width="1.2" points="1030.14,-165.5 1040.14,-162 1030.14,-158.5 1030.14,-165.5"/>
</g>
<!-- GenMachine -->
<g id="node24" class="node">
<title>GenMachine</title>
<path fill="#fff9c4" stroke="#333333" d="M1138,-108C1138,-108 1054,-108 1054,-108 1048,-108 1042,-102 1042,-96 1042,-96 1042,-84 1042,-84 1042,-78 1048,-72 1054,-72 1054,-72 1138,-72 1138,-72 1144,-72 1150,-78 1150,-84 1150,-84 1150,-96 1150,-96 1150,-102 1144,-108 1138,-108"/>
<text xml:space="preserve" text-anchor="middle" x="1096" y="-92.5" font-family="Arial" font-size="10.00">Generate Machine</text>
<text xml:space="preserve" text-anchor="middle" x="1096" y="-80.5" font-family="Arial" font-size="10.00">Instructions</text>
</g>
<!-- DCE2&#45;&gt;GenMachine -->
<g id="edge22" class="edge">
<title>DCE2&#45;&gt;GenMachine</title>
<path fill="none" stroke="#666666" stroke-width="1.2" d="M1096,-143.83C1096,-143.83 1096,-120.23 1096,-120.23"/>
<polygon fill="#666666" stroke="#666666" stroke-width="1.2" points="1099.5,-120.23 1096,-110.23 1092.5,-120.23 1099.5,-120.23"/>
</g>
<!-- GenMachine&#45;&gt;MachineCode -->
<g id="edge23" class="edge">
<title>GenMachine&#45;&gt;MachineCode</title>
<path fill="none" stroke="#666666" stroke-width="1.2" d="M1096,-71.83C1096,-71.83 1096,-48.23 1096,-48.23"/>
<polygon fill="#666666" stroke="#666666" stroke-width="1.2" points="1099.5,-48.23 1096,-38.23 1092.5,-48.23 1099.5,-48.23"/>
</g>
</g>
</svg>
