<?xml version="1.0" encoding="UTF-8" standalone="no"?>
<!DOCTYPE svg PUBLIC "-//W3C//DTD SVG 1.1//EN"
 "http://www.w3.org/Graphics/SVG/1.1/DTD/svg11.dtd">
<!-- Generated by graphviz version 14.0.5 (0)
 -->
<!-- Title: MIR_Optimization_Pipeline Pages: 1 -->
<svg width="1196pt" height="1117pt"
 viewBox="0.00 0.00 1196.00 1117.00" xmlns="http://www.w3.org/2000/svg" xmlns:xlink="http://www.w3.org/1999/xlink">
<g id="graph0" class="graph" transform="scale(1 1) rotate(0) translate(4 1113.25)">
<title>MIR_Optimization_Pipeline</title>
<polygon fill="white" stroke="none" points="-4,4 -4,-1113.25 1192,-1113.25 1192,4 -4,4"/>
<g id="clust1" class="cluster">
<title>cluster_frontend</title>
<polygon fill="none" stroke="#cccccc" stroke-dasharray="5,2" points="12,-988 12,-1065.25 141,-1065.25 141,-988 12,-988"/>
<text xml:space="preserve" text-anchor="middle" x="76.5" y="-1047.95" font-family="Times,serif" font-size="14.00">Frontend / Core</text>
</g>
<g id="clust2" class="cluster">
<title>cluster_middle_end</title>
<polygon fill="none" stroke="#cccccc" stroke-dasharray="5,2" points="8,-370.5 8,-980 660,-980 660,-370.5 8,-370.5"/>
<text xml:space="preserve" text-anchor="middle" x="334" y="-962.7" font-family="Times,serif" font-size="14.00">Optimizer (Middle&#45;End)</text>
</g>
<g id="clust3" class="cluster">
<title>cluster_ssa_opts</title>
<polygon fill="#fafafa" stroke="#bbbbbb" points="16,-630.5 16,-707.75 652,-707.75 652,-630.5 16,-630.5"/>
<text xml:space="preserve" text-anchor="middle" x="334" y="-690.45" font-family="Times,serif" font-size="14.00">SSA Optimizations (Horizontal Pipeline)</text>
</g>
<g id="clust5" class="cluster">
<title>cluster_backend</title>
<polygon fill="none" stroke="#cccccc" stroke-dasharray="5,2" points="528,-57 528,-362.5 1180,-362.5 1180,-57 528,-57"/>
<text xml:space="preserve" text-anchor="middle" x="854" y="-345.2" font-family="Times,serif" font-size="14.00">Backend (Target&#45;Specific)</text>
</g>
<g id="clust6" class="cluster">
<title>cluster_target_gen</title>
<polygon fill="#fffde7" stroke="#d4d4d4" points="536,-252 536,-329.25 1172,-329.25 1172,-252 536,-252"/>
<text xml:space="preserve" text-anchor="middle" x="854" y="-311.95" font-family="Times,serif" font-size="14.00">Target Generation (Horizontal Pipeline)</text>
</g>
<!-- MIR -->
<g id="node1" class="node">
<title>MIR</title>
<ellipse fill="#e1f5fe" stroke="#333333" cx="74" cy="-1091.25" rx="64.8" ry="18"/>
<text xml:space="preserve" text-anchor="middle" x="74" y="-1087.75" font-family="Arial" font-size="10.00">MIR IR</text>
</g>
<!-- Simplify -->
<g id="node3" class="node">
<title>Simplify</title>
<g id="a_node3"><a xlink:href="19_mir_implementation.html#the-simplifier-s-toolbox-simplify-func" xlink:title="Simplify\n(Lowering MIR)">
<path fill="#e8f5e9" stroke="#333333" d="M112.4,-1032C112.4,-1032 35.6,-1032 35.6,-1032 29.6,-1032 23.6,-1026 23.6,-1020 23.6,-1020 23.6,-1008 23.6,-1008 23.6,-1002 29.6,-996 35.6,-996 35.6,-996 112.4,-996 112.4,-996 118.4,-996 124.4,-1002 124.4,-1008 124.4,-1008 124.4,-1020 124.4,-1020 124.4,-1026 118.4,-1032 112.4,-1032"/>
<text xml:space="preserve" text-anchor="middle" x="74" y="-1016.5" font-family="Arial" font-size="10.00">Simplify</text>
<text xml:space="preserve" text-anchor="middle" x="74" y="-1004.5" font-family="Arial" font-size="10.00">(Lowering MIR)</text>
</a>
</g>
</g>
<!-- MIR&#45;&gt;Simplify -->
<g id="edge9" class="edge">
<title>MIR&#45;&gt;Simplify</title>
<path fill="none" stroke="#666666" stroke-width="1.2" d="M74,-1072.94C74,-1072.94 74,-1044.26 74,-1044.26"/>
<polygon fill="#666666" stroke="#666666" stroke-width="1.2" points="77.5,-1044.26 74,-1034.26 70.5,-1044.26 77.5,-1044.26"/>
</g>
<!-- MachineCode -->
<g id="node2" class="node">
<title>MachineCode</title>
<ellipse fill="#fff3e0" stroke="#333333" cx="1114" cy="-18" rx="66.45" ry="18"/>
<text xml:space="preserve" text-anchor="middle" x="1114" y="-14.5" font-family="Arial" font-size="10.00">Native Machine Code</text>
</g>
<!-- BuildCFG -->
<g id="node4" class="node">
<title>BuildCFG</title>
<g id="a_node4"><a xlink:href="#the-architect-s-blueprint-build-func-cfg" xlink:title="Build CFG">
<path fill="#f9f9f9" stroke="#333333" d="M112.4,-946.75C112.4,-946.75 35.6,-946.75 35.6,-946.75 29.6,-946.75 23.6,-940.75 23.6,-934.75 23.6,-934.75 23.6,-922.75 23.6,-922.75 23.6,-916.75 29.6,-910.75 35.6,-910.75 35.6,-910.75 112.4,-910.75 112.4,-910.75 118.4,-910.75 124.4,-916.75 124.4,-922.75 124.4,-922.75 124.4,-934.75 124.4,-934.75 124.4,-940.75 118.4,-946.75 112.4,-946.75"/>
<text xml:space="preserve" text-anchor="middle" x="74" y="-925.25" font-family="Arial" font-size="10.00">Build CFG</text>
</a>
</g>
</g>
<!-- Simplify&#45;&gt;BuildCFG -->
<g id="edge10" class="edge">
<title>Simplify&#45;&gt;BuildCFG</title>
<path fill="none" stroke="#666666" stroke-width="1.2" d="M74,-995.5C74,-995.5 74,-959.03 74,-959.03"/>
<polygon fill="#666666" stroke="#666666" stroke-width="1.2" points="77.5,-959.03 74,-949.03 70.5,-959.03 77.5,-959.03"/>
</g>
<!-- BuildSSA -->
<g id="node5" class="node">
<title>BuildSSA</title>
<g id="a_node5"><a xlink:href="#the-single-truth-ssa-construction" xlink:title="Build SSA">
<path fill="#f9f9f9" stroke="#333333" d="M112.4,-881.75C112.4,-881.75 35.6,-881.75 35.6,-881.75 29.6,-881.75 23.6,-875.75 23.6,-869.75 23.6,-869.75 23.6,-857.75 23.6,-857.75 23.6,-851.75 29.6,-845.75 35.6,-845.75 35.6,-845.75 112.4,-845.75 112.4,-845.75 118.4,-845.75 124.4,-851.75 124.4,-857.75 124.4,-857.75 124.4,-869.75 124.4,-869.75 124.4,-875.75 118.4,-881.75 112.4,-881.75"/>
<text xml:space="preserve" text-anchor="middle" x="74" y="-860.25" font-family="Arial" font-size="10.00">Build SSA</text>
</a>
</g>
</g>
<!-- BuildCFG&#45;&gt;BuildSSA -->
<g id="edge11" class="edge">
<title>BuildCFG&#45;&gt;BuildSSA</title>
<path fill="none" stroke="#666666" stroke-width="1.2" d="M74,-910.3C74,-910.3 74,-893.84 74,-893.84"/>
<polygon fill="#666666" stroke="#666666" stroke-width="1.2" points="77.5,-893.84 74,-883.84 70.5,-893.84 77.5,-893.84"/>
</g>
<!-- AddrTrans -->
<g id="node6" class="node">
<title>AddrTrans</title>
<g id="a_node6"><a xlink:href="#from-abstract-to-concrete-address-transformation" xlink:title="Address\nTransformation">
<path fill="#f9f9f9" stroke="#333333" d="M112.4,-816.75C112.4,-816.75 35.6,-816.75 35.6,-816.75 29.6,-816.75 23.6,-810.75 23.6,-804.75 23.6,-804.75 23.6,-792.75 23.6,-792.75 23.6,-786.75 29.6,-780.75 35.6,-780.75 35.6,-780.75 112.4,-780.75 112.4,-780.75 118.4,-780.75 124.4,-786.75 124.4,-792.75 124.4,-792.75 124.4,-804.75 124.4,-804.75 124.4,-810.75 118.4,-816.75 112.4,-816.75"/>
<text xml:space="preserve" text-anchor="middle" x="74" y="-801.25" font-family="Arial" font-size="10.00">Address</text>
<text xml:space="preserve" text-anchor="middle" x="74" y="-789.25" font-family="Arial" font-size="10.00">Transformation</text>
</a>
</g>
</g>
<!-- BuildSSA&#45;&gt;AddrTrans -->
<g id="edge12" class="edge">
<title>BuildSSA&#45;&gt;AddrTrans</title>
<path fill="none" stroke="#666666" stroke-width="1.2" d="M74,-845.3C74,-845.3 74,-828.84 74,-828.84"/>
<polygon fill="#666666" stroke="#666666" stroke-width="1.2" points="77.5,-828.84 74,-818.84 70.5,-828.84 77.5,-828.84"/>
</g>
<!-- BlockCloning -->
<g id="node7" class="node">
<title>BlockCloning</title>
<g id="a_node7"><a xlink:href="#path-specialization-basic-block-cloning" xlink:title="Block Cloning">
<path fill="#f9f9f9" stroke="#333333" d="M112.4,-751.75C112.4,-751.75 35.6,-751.75 35.6,-751.75 29.6,-751.75 23.6,-745.75 23.6,-739.75 23.6,-739.75 23.6,-727.75 23.6,-727.75 23.6,-721.75 29.6,-715.75 35.6,-715.75 35.6,-715.75 112.4,-715.75 112.4,-715.75 118.4,-715.75 124.4,-721.75 124.4,-727.75 124.4,-727.75 124.4,-739.75 124.4,-739.75 124.4,-745.75 118.4,-751.75 112.4,-751.75"/>
<text xml:space="preserve" text-anchor="middle" x="74" y="-730.25" font-family="Arial" font-size="10.00">Block Cloning</text>
</a>
</g>
</g>
<!-- AddrTrans&#45;&gt;BlockCloning -->
<g id="edge13" class="edge">
<title>AddrTrans&#45;&gt;BlockCloning</title>
<path fill="none" stroke="#666666" stroke-width="1.2" d="M74,-780.3C74,-780.3 74,-763.84 74,-763.84"/>
<polygon fill="#666666" stroke="#666666" stroke-width="1.2" points="77.5,-763.84 74,-753.84 70.5,-763.84 77.5,-763.84"/>
</g>
<!-- GVN -->
<g id="node8" class="node">
<title>GVN</title>
<g id="a_node8"><a xlink:href="#the-grand-library-global-value-numbering-gvn" xlink:title="GVN / CP / RLE">
<path fill="#f9f9f9" stroke="#333333" d="M112.4,-674.5C112.4,-674.5 35.6,-674.5 35.6,-674.5 29.6,-674.5 23.6,-668.5 23.6,-662.5 23.6,-662.5 23.6,-650.5 23.6,-650.5 23.6,-644.5 29.6,-638.5 35.6,-638.5 35.6,-638.5 112.4,-638.5 112.4,-638.5 118.4,-638.5 124.4,-644.5 124.4,-650.5 124.4,-650.5 124.4,-662.5 124.4,-662.5 124.4,-668.5 118.4,-674.5 112.4,-674.5"/>
<text xml:space="preserve" text-anchor="middle" x="74" y="-653" font-family="Arial" font-size="10.00">GVN / CP / RLE</text>
</a>
</g>
</g>
<!-- BlockCloning&#45;&gt;GVN -->
<g id="edge14" class="edge">
<title>BlockCloning&#45;&gt;GVN</title>
<path fill="none" stroke="#666666" stroke-width="1.2" d="M74,-715.44C74,-715.44 74,-686.76 74,-686.76"/>
<polygon fill="#666666" stroke="#666666" stroke-width="1.2" points="77.5,-686.76 74,-676.76 70.5,-686.76 77.5,-686.76"/>
</g>
<!-- CopyProp -->
<g id="node9" class="node">
<title>CopyProp</title>
<g id="a_node9"><a xlink:href="#the-vanishing-act-copy-propagation" xlink:title="Copy Propagation">
<path fill="#f9f9f9" stroke="#333333" d="M242.4,-674.5C242.4,-674.5 165.6,-674.5 165.6,-674.5 159.6,-674.5 153.6,-668.5 153.6,-662.5 153.6,-662.5 153.6,-650.5 153.6,-650.5 153.6,-644.5 159.6,-638.5 165.6,-638.5 165.6,-638.5 242.4,-638.5 242.4,-638.5 248.4,-638.5 254.4,-644.5 254.4,-650.5 254.4,-650.5 254.4,-662.5 254.4,-662.5 254.4,-668.5 248.4,-674.5 242.4,-674.5"/>
<text xml:space="preserve" text-anchor="middle" x="204" y="-653" font-family="Arial" font-size="10.00">Copy Propagation</text>
</a>
</g>
</g>
<!-- GVN&#45;&gt;CopyProp -->
<g id="edge1" class="edge">
<title>GVN&#45;&gt;CopyProp</title>
<path fill="none" stroke="#666666" stroke-width="1.2" d="M124.63,-657C124.63,-657 141.47,-657 141.47,-657"/>
<polygon fill="#666666" stroke="#666666" stroke-width="1.2" points="141.47,-660.5 151.47,-657 141.47,-653.5 141.47,-660.5"/>
</g>
<!-- DSE -->
<g id="node10" class="node">
<title>DSE</title>
<g id="a_node10"><a xlink:href="#cleaning-the-warehouses-dead-store-elimination-dse" xlink:title="Dead Store\nElimination">
<path fill="#f9f9f9" stroke="#333333" d="M372.4,-674.5C372.4,-674.5 295.6,-674.5 295.6,-674.5 289.6,-674.5 283.6,-668.5 283.6,-662.5 283.6,-662.5 283.6,-650.5 283.6,-650.5 283.6,-644.5 289.6,-638.5 295.6,-638.5 295.6,-638.5 372.4,-638.5 372.4,-638.5 378.4,-638.5 384.4,-644.5 384.4,-650.5 384.4,-650.5 384.4,-662.5 384.4,-662.5 384.4,-668.5 378.4,-674.5 372.4,-674.5"/>
<text xml:space="preserve" text-anchor="middle" x="334" y="-659" font-family="Arial" font-size="10.00">Dead Store</text>
<text xml:space="preserve" text-anchor="middle" x="334" y="-647" font-family="Arial" font-size="10.00">Elimination</text>
</a>
</g>
</g>
<!-- CopyProp&#45;&gt;DSE -->
<g id="edge2" class="edge">
<title>CopyProp&#45;&gt;DSE</title>
<path fill="none" stroke="#666666" stroke-width="1.2" d="M254.63,-657C254.63,-657 271.47,-657 271.47,-657"/>
<polygon fill="#666666" stroke="#666666" stroke-width="1.2" points="271.47,-660.5 281.47,-657 271.47,-653.5 271.47,-660.5"/>
</g>
<!-- DCE1 -->
<g id="node11" class="node">
<title>DCE1</title>
<path fill="#f9f9f9" stroke="#333333" d="M502.4,-674.5C502.4,-674.5 425.6,-674.5 425.6,-674.5 419.6,-674.5 413.6,-668.5 413.6,-662.5 413.6,-662.5 413.6,-650.5 413.6,-650.5 413.6,-644.5 419.6,-638.5 425.6,-638.5 425.6,-638.5 502.4,-638.5 502.4,-638.5 508.4,-638.5 514.4,-644.5 514.4,-650.5 514.4,-650.5 514.4,-662.5 514.4,-662.5 514.4,-668.5 508.4,-674.5 502.4,-674.5"/>
<text xml:space="preserve" text-anchor="middle" x="464" y="-659" font-family="Arial" font-size="10.00">Dead Code</text>
<text xml:space="preserve" text-anchor="middle" x="464" y="-647" font-family="Arial" font-size="10.00">Elimination</text>
</g>
<!-- DSE&#45;&gt;DCE1 -->
<g id="edge3" class="edge">
<title>DSE&#45;&gt;DCE1</title>
<path fill="none" stroke="#666666" stroke-width="1.2" d="M384.63,-657C384.63,-657 401.47,-657 401.47,-657"/>
<polygon fill="#666666" stroke="#666666" stroke-width="1.2" points="401.47,-660.5 411.47,-657 401.47,-653.5 401.47,-660.5"/>
</g>
<!-- LICM -->
<g id="node12" class="node">
<title>LICM</title>
<g id="a_node12"><a xlink:href="#escaping-the-loop-loop-invariant-code-motion-licm" xlink:title="Loop Invariant\nMotion">
<path fill="#f9f9f9" stroke="#333333" d="M632.4,-674.5C632.4,-674.5 555.6,-674.5 555.6,-674.5 549.6,-674.5 543.6,-668.5 543.6,-662.5 543.6,-662.5 543.6,-650.5 543.6,-650.5 543.6,-644.5 549.6,-638.5 555.6,-638.5 555.6,-638.5 632.4,-638.5 632.4,-638.5 638.4,-638.5 644.4,-644.5 644.4,-650.5 644.4,-650.5 644.4,-662.5 644.4,-662.5 644.4,-668.5 638.4,-674.5 632.4,-674.5"/>
<text xml:space="preserve" text-anchor="middle" x="594" y="-659" font-family="Arial" font-size="10.00">Loop Invariant</text>
<text xml:space="preserve" text-anchor="middle" x="594" y="-647" font-family="Arial" font-size="10.00">Motion</text>
</a>
</g>
</g>
<!-- DCE1&#45;&gt;LICM -->
<g id="edge4" class="edge">
<title>DCE1&#45;&gt;LICM</title>
<path fill="none" stroke="#666666" stroke-width="1.2" d="M514.63,-657C514.63,-657 531.47,-657 531.47,-657"/>
<polygon fill="#666666" stroke="#666666" stroke-width="1.2" points="531.47,-660.5 541.47,-657 531.47,-653.5 531.47,-660.5"/>
</g>
<!-- PressureRelief -->
<g id="node13" class="node">
<title>PressureRelief</title>
<path fill="#f9f9f9" stroke="#333333" d="M632.4,-609.5C632.4,-609.5 555.6,-609.5 555.6,-609.5 549.6,-609.5 543.6,-603.5 543.6,-597.5 543.6,-597.5 543.6,-585.5 543.6,-585.5 543.6,-579.5 549.6,-573.5 555.6,-573.5 555.6,-573.5 632.4,-573.5 632.4,-573.5 638.4,-573.5 644.4,-579.5 644.4,-585.5 644.4,-585.5 644.4,-597.5 644.4,-597.5 644.4,-603.5 638.4,-609.5 632.4,-609.5"/>
<text xml:space="preserve" text-anchor="middle" x="594" y="-588" font-family="Arial" font-size="10.00">Pressure Relief</text>
</g>
<!-- LICM&#45;&gt;PressureRelief -->
<g id="edge15" class="edge">
<title>LICM&#45;&gt;PressureRelief</title>
<path fill="none" stroke="#666666" stroke-width="1.2" d="M594,-638.05C594,-638.05 594,-621.59 594,-621.59"/>
<polygon fill="#666666" stroke="#666666" stroke-width="1.2" points="597.5,-621.59 594,-611.59 590.5,-621.59 597.5,-621.59"/>
</g>
<!-- SSACombine -->
<g id="node14" class="node">
<title>SSACombine</title>
<g id="a_node14"><a xlink:href="#the-merging-pass-instruction-combining-ssa-combine" xlink:title="SSA Combine">
<path fill="#f9f9f9" stroke="#333333" d="M632.4,-544.5C632.4,-544.5 555.6,-544.5 555.6,-544.5 549.6,-544.5 543.6,-538.5 543.6,-532.5 543.6,-532.5 543.6,-520.5 543.6,-520.5 543.6,-514.5 549.6,-508.5 555.6,-508.5 555.6,-508.5 632.4,-508.5 632.4,-508.5 638.4,-508.5 644.4,-514.5 644.4,-520.5 644.4,-520.5 644.4,-532.5 644.4,-532.5 644.4,-538.5 638.4,-544.5 632.4,-544.5"/>
<text xml:space="preserve" text-anchor="middle" x="594" y="-523" font-family="Arial" font-size="10.00">SSA Combine</text>
</a>
</g>
</g>
<!-- PressureRelief&#45;&gt;SSACombine -->
<g id="edge16" class="edge">
<title>PressureRelief&#45;&gt;SSACombine</title>
<path fill="none" stroke="#666666" stroke-width="1.2" d="M594,-573.05C594,-573.05 594,-556.59 594,-556.59"/>
<polygon fill="#666666" stroke="#666666" stroke-width="1.2" points="597.5,-556.59 594,-546.59 590.5,-556.59 597.5,-556.59"/>
</g>
<!-- OutSSA -->
<g id="node15" class="node">
<title>OutSSA</title>
<g id="a_node15"><a xlink:href="#the-final-handover-conventional-ssa-make-conventional-ssa" xlink:title="Out of SSA">
<path fill="#f9f9f9" stroke="#333333" d="M632.4,-479.5C632.4,-479.5 555.6,-479.5 555.6,-479.5 549.6,-479.5 543.6,-473.5 543.6,-467.5 543.6,-467.5 543.6,-455.5 543.6,-455.5 543.6,-449.5 549.6,-443.5 555.6,-443.5 555.6,-443.5 632.4,-443.5 632.4,-443.5 638.4,-443.5 644.4,-449.5 644.4,-455.5 644.4,-455.5 644.4,-467.5 644.4,-467.5 644.4,-473.5 638.4,-479.5 632.4,-479.5"/>
<text xml:space="preserve" text-anchor="middle" x="594" y="-458" font-family="Arial" font-size="10.00">Out of SSA</text>
</a>
</g>
</g>
<!-- SSACombine&#45;&gt;OutSSA -->
<g id="edge17" class="edge">
<title>SSACombine&#45;&gt;OutSSA</title>
<path fill="none" stroke="#666666" stroke-width="1.2" d="M594,-508.05C594,-508.05 594,-491.59 594,-491.59"/>
<polygon fill="#666666" stroke="#666666" stroke-width="1.2" points="597.5,-491.59 594,-481.59 590.5,-491.59 597.5,-491.59"/>
</g>
<!-- JumpOpts -->
<g id="node16" class="node">
<title>JumpOpts</title>
<g id="a_node16"><a xlink:href="#the-path-smoother-jump-optimization-jump-opt" xlink:title="Jump Opts">
<path fill="#f9f9f9" stroke="#333333" d="M632.4,-414.5C632.4,-414.5 555.6,-414.5 555.6,-414.5 549.6,-414.5 543.6,-408.5 543.6,-402.5 543.6,-402.5 543.6,-390.5 543.6,-390.5 543.6,-384.5 549.6,-378.5 555.6,-378.5 555.6,-378.5 632.4,-378.5 632.4,-378.5 638.4,-378.5 644.4,-384.5 644.4,-390.5 644.4,-390.5 644.4,-402.5 644.4,-402.5 644.4,-408.5 638.4,-414.5 632.4,-414.5"/>
<text xml:space="preserve" text-anchor="middle" x="594" y="-393" font-family="Arial" font-size="10.00">Jump Opts</text>
</a>
</g>
</g>
<!-- OutSSA&#45;&gt;JumpOpts -->
<g id="edge18" class="edge">
<title>OutSSA&#45;&gt;JumpOpts</title>
<path fill="none" stroke="#666666" stroke-width="1.2" d="M594,-443.05C594,-443.05 594,-426.59 594,-426.59"/>
<polygon fill="#666666" stroke="#666666" stroke-width="1.2" points="597.5,-426.59 594,-416.59 590.5,-426.59 597.5,-426.59"/>
</g>
<!-- Machinize -->
<g id="node17" class="node">
<title>Machinize</title>
<g id="a_node17"><a xlink:href="#handover-to-the-metal-target-translation" xlink:title="Machinize">
<path fill="#fff9c4" stroke="#333333" d="M632.4,-296C632.4,-296 555.6,-296 555.6,-296 549.6,-296 543.6,-290 543.6,-284 543.6,-284 543.6,-272 543.6,-272 543.6,-266 549.6,-260 555.6,-260 555.6,-260 632.4,-260 632.4,-260 638.4,-260 644.4,-266 644.4,-272 644.4,-272 644.4,-284 644.4,-284 644.4,-290 638.4,-296 632.4,-296"/>
<text xml:space="preserve" text-anchor="middle" x="594" y="-274.5" font-family="Arial" font-size="10.00">Machinize</text>
</a>
</g>
</g>
<!-- JumpOpts&#45;&gt;Machinize -->
<g id="edge19" class="edge">
<title>JumpOpts&#45;&gt;Machinize</title>
<path fill="none" stroke="#666666" stroke-width="1.2" d="M594,-378.24C594,-378.24 594,-308.29 594,-308.29"/>
<polygon fill="#666666" stroke="#666666" stroke-width="1.2" points="597.5,-308.29 594,-298.29 590.5,-308.29 597.5,-308.29"/>
</g>
<!-- BuildLive -->
<g id="node18" class="node">
<title>BuildLive</title>
<g id="a_node18"><a xlink:href="#mapping-existence-live-range-analysis" xlink:title="Build Live Info">
<path fill="#f9f9f9" stroke="#333333" d="M762.4,-296C762.4,-296 685.6,-296 685.6,-296 679.6,-296 673.6,-290 673.6,-284 673.6,-284 673.6,-272 673.6,-272 673.6,-266 679.6,-260 685.6,-260 685.6,-260 762.4,-260 762.4,-260 768.4,-260 774.4,-266 774.4,-272 774.4,-272 774.4,-284 774.4,-284 774.4,-290 768.4,-296 762.4,-296"/>
<text xml:space="preserve" text-anchor="middle" x="724" y="-274.5" font-family="Arial" font-size="10.00">Build Live Info</text>
</a>
</g>
</g>
<!-- Machinize&#45;&gt;BuildLive -->
<g id="edge5" class="edge">
<title>Machinize&#45;&gt;BuildLive</title>
<path fill="none" stroke="#666666" stroke-width="1.2" d="M644.63,-278C644.63,-278 661.47,-278 661.47,-278"/>
<polygon fill="#666666" stroke="#666666" stroke-width="1.2" points="661.47,-281.5 671.47,-278 661.47,-274.5 661.47,-281.5"/>
</g>
<!-- BuildConflicts -->
<g id="node19" class="node">
<title>BuildConflicts</title>
<g id="a_node19"><a xlink:href="#aggressive-register-coalescing-coalesce" xlink:title="Build Register\nConflicts">
<path fill="#f9f9f9" stroke="#333333" d="M892.4,-296C892.4,-296 815.6,-296 815.6,-296 809.6,-296 803.6,-290 803.6,-284 803.6,-284 803.6,-272 803.6,-272 803.6,-266 809.6,-260 815.6,-260 815.6,-260 892.4,-260 892.4,-260 898.4,-260 904.4,-266 904.4,-272 904.4,-272 904.4,-284 904.4,-284 904.4,-290 898.4,-296 892.4,-296"/>
<text xml:space="preserve" text-anchor="middle" x="854" y="-280.5" font-family="Arial" font-size="10.00">Build Register</text>
<text xml:space="preserve" text-anchor="middle" x="854" y="-268.5" font-family="Arial" font-size="10.00">Conflicts</text>
</a>
</g>
</g>
<!-- BuildLive&#45;&gt;BuildConflicts -->
<g id="edge6" class="edge">
<title>BuildLive&#45;&gt;BuildConflicts</title>
<path fill="none" stroke="#666666" stroke-width="1.2" d="M774.63,-278C774.63,-278 791.47,-278 791.47,-278"/>
<polygon fill="#666666" stroke="#666666" stroke-width="1.2" points="791.47,-281.5 801.47,-278 791.47,-274.5 791.47,-281.5"/>
</g>
<!-- Coalesce -->
<g id="node20" class="node">
<title>Coalesce</title>
<path fill="#f9f9f9" stroke="#333333" d="M1022.4,-296C1022.4,-296 945.6,-296 945.6,-296 939.6,-296 933.6,-290 933.6,-284 933.6,-284 933.6,-272 933.6,-272 933.6,-266 939.6,-260 945.6,-260 945.6,-260 1022.4,-260 1022.4,-260 1028.4,-260 1034.4,-266 1034.4,-272 1034.4,-272 1034.4,-284 1034.4,-284 1034.4,-290 1028.4,-296 1022.4,-296"/>
<text xml:space="preserve" text-anchor="middle" x="984" y="-274.5" font-family="Arial" font-size="10.00">Coalesce</text>
</g>
<!-- BuildConflicts&#45;&gt;Coalesce -->
<g id="edge7" class="edge">
<title>BuildConflicts&#45;&gt;Coalesce</title>
<path fill="none" stroke="#666666" stroke-width="1.2" d="M904.63,-278C904.63,-278 921.47,-278 921.47,-278"/>
<polygon fill="#666666" stroke="#666666" stroke-width="1.2" points="921.47,-281.5 931.47,-278 921.47,-274.5 921.47,-281.5"/>
</g>
<!-- RA -->
<g id="node21" class="node">
<title>RA</title>
<g id="a_node21"><a xlink:href="#the-allocation-war-linear-scan-ra" xlink:title="Register Allocator\n(Linear Scan)">
<path fill="#ffebee" stroke="#333333" d="M1152.4,-296C1152.4,-296 1075.6,-296 1075.6,-296 1069.6,-296 1063.6,-290 1063.6,-284 1063.6,-284 1063.6,-272 1063.6,-272 1063.6,-266 1069.6,-260 1075.6,-260 1075.6,-260 1152.4,-260 1152.4,-260 1158.4,-260 1164.4,-266 1164.4,-272 1164.4,-272 1164.4,-284 1164.4,-284 1164.4,-290 1158.4,-296 1152.4,-296"/>
<text xml:space="preserve" text-anchor="middle" x="1114" y="-280.5" font-family="Arial" font-size="10.00">Register Allocator</text>
<text xml:space="preserve" text-anchor="middle" x="1114" y="-268.5" font-family="Arial" font-size="10.00">(Linear Scan)</text>
</a>
</g>
</g>
<!-- Coalesce&#45;&gt;RA -->
<g id="edge8" class="edge">
<title>Coalesce&#45;&gt;RA</title>
<path fill="none" stroke="#666666" stroke-width="1.2" d="M1034.63,-278C1034.63,-278 1051.47,-278 1051.47,-278"/>
<polygon fill="#666666" stroke="#666666" stroke-width="1.2" points="1051.47,-281.5 1061.47,-278 1051.47,-274.5 1051.47,-281.5"/>
</g>
<!-- Combine -->
<g id="node22" class="node">
<title>Combine</title>
<path fill="#f9f9f9" stroke="#333333" d="M1152.4,-231C1152.4,-231 1075.6,-231 1075.6,-231 1069.6,-231 1063.6,-225 1063.6,-219 1063.6,-219 1063.6,-207 1063.6,-207 1063.6,-201 1069.6,-195 1075.6,-195 1075.6,-195 1152.4,-195 1152.4,-195 1158.4,-195 1164.4,-201 1164.4,-207 1164.4,-207 1164.4,-219 1164.4,-219 1164.4,-225 1158.4,-231 1152.4,-231"/>
<text xml:space="preserve" text-anchor="middle" x="1114" y="-215.5" font-family="Arial" font-size="10.00">Combine</text>
<text xml:space="preserve" text-anchor="middle" x="1114" y="-203.5" font-family="Arial" font-size="10.00">(Code Selection)</text>
</g>
<!-- RA&#45;&gt;Combine -->
<g id="edge20" class="edge">
<title>RA&#45;&gt;Combine</title>
<path fill="none" stroke="#666666" stroke-width="1.2" d="M1114,-259.55C1114,-259.55 1114,-243.09 1114,-243.09"/>
<polygon fill="#666666" stroke="#666666" stroke-width="1.2" points="1117.5,-243.09 1114,-233.09 1110.5,-243.09 1117.5,-243.09"/>
</g>
<!-- DCE2 -->
<g id="node23" class="node">
<title>DCE2</title>
<path fill="#f9f9f9" stroke="#333333" d="M1152.4,-166C1152.4,-166 1075.6,-166 1075.6,-166 1069.6,-166 1063.6,-160 1063.6,-154 1063.6,-154 1063.6,-142 1063.6,-142 1063.6,-136 1069.6,-130 1075.6,-130 1075.6,-130 1152.4,-130 1152.4,-130 1158.4,-130 1164.4,-136 1164.4,-142 1164.4,-142 1164.4,-154 1164.4,-154 1164.4,-160 1158.4,-166 1152.4,-166"/>
<text xml:space="preserve" text-anchor="middle" x="1114" y="-150.5" font-family="Arial" font-size="10.00">Dead Code</text>
<text xml:space="preserve" text-anchor="middle" x="1114" y="-138.5" font-family="Arial" font-size="10.00">Elimination</text>
</g>
<!-- Combine&#45;&gt;DCE2 -->
<g id="edge21" class="edge">
<title>Combine&#45;&gt;DCE2</title>
<path fill="none" stroke="#666666" stroke-width="1.2" d="M1114,-194.55C1114,-194.55 1114,-178.09 1114,-178.09"/>
<polygon fill="#666666" stroke="#666666" stroke-width="1.2" points="1117.5,-178.09 1114,-168.09 1110.5,-178.09 1117.5,-178.09"/>
</g>
<!-- GenMachine -->
<g id="node24" class="node">
<title>GenMachine</title>
<path fill="#fff9c4" stroke="#333333" d="M1152.4,-101C1152.4,-101 1075.6,-101 1075.6,-101 1069.6,-101 1063.6,-95 1063.6,-89 1063.6,-89 1063.6,-77 1063.6,-77 1063.6,-71 1069.6,-65 1075.6,-65 1075.6,-65 1152.4,-65 1152.4,-65 1158.4,-65 1164.4,-71 1164.4,-77 1164.4,-77 1164.4,-89 1164.4,-89 1164.4,-95 1158.4,-101 1152.4,-101"/>
<text xml:space="preserve" text-anchor="middle" x="1114" y="-85.5" font-family="Arial" font-size="10.00">Generate Machine</text>
<text xml:space="preserve" text-anchor="middle" x="1114" y="-73.5" font-family="Arial" font-size="10.00">Instructions</text>
</g>
<!-- DCE2&#45;&gt;GenMachine -->
<g id="edge22" class="edge">
<title>DCE2&#45;&gt;GenMachine</title>
<path fill="none" stroke="#666666" stroke-width="1.2" d="M1114,-129.55C1114,-129.55 1114,-113.09 1114,-113.09"/>
<polygon fill="#666666" stroke="#666666" stroke-width="1.2" points="1117.5,-113.09 1114,-103.09 1110.5,-113.09 1117.5,-113.09"/>
</g>
<!-- GenMachine&#45;&gt;MachineCode -->
<g id="edge23" class="edge">
<title>GenMachine&#45;&gt;MachineCode</title>
<path fill="none" stroke="#666666" stroke-width="1.2" d="M1114,-64.55C1114,-64.55 1114,-48.09 1114,-48.09"/>
<polygon fill="#666666" stroke="#666666" stroke-width="1.2" points="1117.5,-48.09 1114,-38.09 1110.5,-48.09 1117.5,-48.09"/>
</g>
</g>
</svg>
