<?xml version="1.0" encoding="UTF-8" standalone="no"?>
<!DOCTYPE svg PUBLIC "-//W3C//DTD SVG 1.1//EN"
 "http://www.w3.org/Graphics/SVG/1.1/DTD/svg11.dtd">
<!-- Generated by graphviz version 14.0.5 (0)
 -->
<!-- Title: MIR_Optimization_Pipeline Pages: 1 -->
<svg width="3112pt" height="2535pt"
 viewBox="0.00 0.00 3112.00 2535.00" xmlns="http://www.w3.org/2000/svg" xmlns:xlink="http://www.w3.org/1999/xlink">
<g id="graph0" class="graph" transform="scale(1 1) rotate(0) translate(4 2531.35)">
<title>MIR_Optimization_Pipeline</title>
<polygon fill="white" stroke="none" points="-4,4 -4,-2531.35 3108,-2531.35 3108,4 -4,4"/>
<g id="clust1" class="cluster">
<title>cluster_frontend</title>
<polygon fill="none" stroke="#cccccc" stroke-dasharray="5,2" points="16,-2252.95 16,-2387.35 320,-2387.35 320,-2252.95 16,-2252.95"/>
<text xml:space="preserve" text-anchor="middle" x="168" y="-2364.35" font-family="Times,serif" font-size="20.00">Frontend / Core</text>
</g>
<g id="clust2" class="cluster">
<title>cluster_middle_end</title>
<polygon fill="none" stroke="#cccccc" stroke-dasharray="5,2" points="8,-827.35 8,-2228.95 1712,-2228.95 1712,-827.35 8,-827.35"/>
<text xml:space="preserve" text-anchor="middle" x="860" y="-2205.95" font-family="Times,serif" font-size="20.00">Optimizer (Middle&#45;End)</text>
</g>
<g id="clust3" class="cluster">
<title>cluster_ssa_opts</title>
<polygon fill="#fafafa" stroke="#bbbbbb" points="16,-1460.95 16,-1593.1 1704,-1593.1 1704,-1460.95 16,-1460.95"/>
<text xml:space="preserve" text-anchor="middle" x="860" y="-1572" font-family="Times,serif" font-size="18.00">SSA Optimizations (Horizontal Pipeline)</text>
</g>
<g id="clust5" class="cluster">
<title>cluster_backend</title>
<polygon fill="none" stroke="#cccccc" stroke-dasharray="5,2" points="1392,-172 1392,-819.35 3096,-819.35 3096,-172 1392,-172"/>
<text xml:space="preserve" text-anchor="middle" x="2244" y="-796.35" font-family="Times,serif" font-size="20.00">Backend (Target&#45;Specific)</text>
</g>
<g id="clust6" class="cluster">
<title>cluster_target_gen</title>
<polygon fill="#fffde7" stroke="#d4d4d4" points="1400,-647.2 1400,-779.35 3088,-779.35 3088,-647.2 1400,-647.2"/>
<text xml:space="preserve" text-anchor="middle" x="2244" y="-758.25" font-family="Times,serif" font-size="18.00">Target Generation (Horizontal Pipeline)</text>
</g>
<!-- MIR -->
<g id="node1" class="node">
<title>MIR</title>
<ellipse fill="#e1f5fe" stroke="#333333" cx="168" cy="-2473.35" rx="144" ry="54"/>
<text xml:space="preserve" text-anchor="middle" x="168" y="-2467.53" font-family="Arial" font-size="16.00">MIR IR</text>
</g>
<!-- Simplify -->
<g id="node3" class="node">
<title>Simplify</title>
<g id="a_node3"><a xlink:href="19_mir_implementation.html#the-simplifier-s-toolbox-simplify-func" xlink:title="Simplify\n(Lowering MIR)">
<path fill="#e8f5e9" stroke="#333333" d="M300,-2347.35C300,-2347.35 36,-2347.35 36,-2347.35 30,-2347.35 24,-2341.35 24,-2335.35 24,-2335.35 24,-2272.95 24,-2272.95 24,-2266.95 30,-2260.95 36,-2260.95 36,-2260.95 300,-2260.95 300,-2260.95 306,-2260.95 312,-2266.95 312,-2272.95 312,-2272.95 312,-2335.35 312,-2335.35 312,-2341.35 306,-2347.35 300,-2347.35"/>
<text xml:space="preserve" text-anchor="middle" x="168" y="-2307.7" font-family="Arial" font-size="16.00">Simplify</text>
<text xml:space="preserve" text-anchor="middle" x="168" y="-2288.95" font-family="Arial" font-size="16.00">(Lowering MIR)</text>
</a>
</g>
</g>
<!-- MIR&#45;&gt;Simplify -->
<g id="edge9" class="edge">
<title>MIR&#45;&gt;Simplify</title>
<path fill="none" stroke="#666666" stroke-width="2" d="M168,-2418.88C168,-2418.88 168,-2365.83 168,-2365.83"/>
<polygon fill="#666666" stroke="#666666" stroke-width="2" points="173.25,-2365.83 168,-2350.83 162.75,-2365.83 173.25,-2365.83"/>
</g>
<!-- MachineCode -->
<g id="node2" class="node">
<title>MachineCode</title>
<ellipse fill="#fff3e0" stroke="#333333" cx="2936" cy="-54" rx="144" ry="54"/>
<text xml:space="preserve" text-anchor="middle" x="2936" y="-48.17" font-family="Arial" font-size="16.00">Native Machine Code</text>
</g>
<!-- BuildCFG -->
<g id="node4" class="node">
<title>BuildCFG</title>
<g id="a_node4"><a xlink:href="#the-architect-s-blueprint-build-func-cfg" xlink:title="Build CFG">
<path fill="#f9f9f9" stroke="#333333" d="M300,-2188.95C300,-2188.95 36,-2188.95 36,-2188.95 30,-2188.95 24,-2182.95 24,-2176.95 24,-2176.95 24,-2114.55 24,-2114.55 24,-2108.55 30,-2102.55 36,-2102.55 36,-2102.55 300,-2102.55 300,-2102.55 306,-2102.55 312,-2108.55 312,-2114.55 312,-2114.55 312,-2176.95 312,-2176.95 312,-2182.95 306,-2188.95 300,-2188.95"/>
<text xml:space="preserve" text-anchor="middle" x="168" y="-2139.93" font-family="Arial" font-size="16.00">Build CFG</text>
</a>
</g>
</g>
<!-- Simplify&#45;&gt;BuildCFG -->
<g id="edge10" class="edge">
<title>Simplify&#45;&gt;BuildCFG</title>
<path fill="none" stroke="#666666" stroke-width="2" d="M168,-2260.87C168,-2260.87 168,-2207.28 168,-2207.28"/>
<polygon fill="#666666" stroke="#666666" stroke-width="2" points="173.25,-2207.28 168,-2192.28 162.75,-2207.28 173.25,-2207.28"/>
</g>
<!-- BuildSSA -->
<g id="node5" class="node">
<title>BuildSSA</title>
<g id="a_node5"><a xlink:href="#the-single-truth-ssa-construction" xlink:title="Build SSA">
<path fill="#f9f9f9" stroke="#333333" d="M300,-2030.55C300,-2030.55 36,-2030.55 36,-2030.55 30,-2030.55 24,-2024.55 24,-2018.55 24,-2018.55 24,-1956.15 24,-1956.15 24,-1950.15 30,-1944.15 36,-1944.15 36,-1944.15 300,-1944.15 300,-1944.15 306,-1944.15 312,-1950.15 312,-1956.15 312,-1956.15 312,-2018.55 312,-2018.55 312,-2024.55 306,-2030.55 300,-2030.55"/>
<text xml:space="preserve" text-anchor="middle" x="168" y="-1981.53" font-family="Arial" font-size="16.00">Build SSA</text>
</a>
</g>
</g>
<!-- BuildCFG&#45;&gt;BuildSSA -->
<g id="edge11" class="edge">
<title>BuildCFG&#45;&gt;BuildSSA</title>
<path fill="none" stroke="#666666" stroke-width="2" d="M168,-2102.47C168,-2102.47 168,-2048.88 168,-2048.88"/>
<polygon fill="#666666" stroke="#666666" stroke-width="2" points="173.25,-2048.88 168,-2033.88 162.75,-2048.88 173.25,-2048.88"/>
</g>
<!-- AddrTrans -->
<g id="node6" class="node">
<title>AddrTrans</title>
<g id="a_node6"><a xlink:href="#from-abstract-to-concrete-address-transformation" xlink:title="Address\nTransformation">
<path fill="#f9f9f9" stroke="#333333" d="M300,-1872.15C300,-1872.15 36,-1872.15 36,-1872.15 30,-1872.15 24,-1866.15 24,-1860.15 24,-1860.15 24,-1797.75 24,-1797.75 24,-1791.75 30,-1785.75 36,-1785.75 36,-1785.75 300,-1785.75 300,-1785.75 306,-1785.75 312,-1791.75 312,-1797.75 312,-1797.75 312,-1860.15 312,-1860.15 312,-1866.15 306,-1872.15 300,-1872.15"/>
<text xml:space="preserve" text-anchor="middle" x="168" y="-1832.5" font-family="Arial" font-size="16.00">Address</text>
<text xml:space="preserve" text-anchor="middle" x="168" y="-1813.75" font-family="Arial" font-size="16.00">Transformation</text>
</a>
</g>
</g>
<!-- BuildSSA&#45;&gt;AddrTrans -->
<g id="edge12" class="edge">
<title>BuildSSA&#45;&gt;AddrTrans</title>
<path fill="none" stroke="#666666" stroke-width="2" d="M168,-1944.07C168,-1944.07 168,-1890.48 168,-1890.48"/>
<polygon fill="#666666" stroke="#666666" stroke-width="2" points="173.25,-1890.48 168,-1875.48 162.75,-1890.48 173.25,-1890.48"/>
</g>
<!-- BlockCloning -->
<g id="node7" class="node">
<title>BlockCloning</title>
<g id="a_node7"><a xlink:href="#path-specialization-basic-block-cloning" xlink:title="Block Cloning">
<path fill="#f9f9f9" stroke="#333333" d="M300,-1713.75C300,-1713.75 36,-1713.75 36,-1713.75 30,-1713.75 24,-1707.75 24,-1701.75 24,-1701.75 24,-1639.35 24,-1639.35 24,-1633.35 30,-1627.35 36,-1627.35 36,-1627.35 300,-1627.35 300,-1627.35 306,-1627.35 312,-1633.35 312,-1639.35 312,-1639.35 312,-1701.75 312,-1701.75 312,-1707.75 306,-1713.75 300,-1713.75"/>
<text xml:space="preserve" text-anchor="middle" x="168" y="-1664.73" font-family="Arial" font-size="16.00">Block Cloning</text>
</a>
</g>
</g>
<!-- AddrTrans&#45;&gt;BlockCloning -->
<g id="edge13" class="edge">
<title>AddrTrans&#45;&gt;BlockCloning</title>
<path fill="none" stroke="#666666" stroke-width="2" d="M168,-1785.67C168,-1785.67 168,-1732.08 168,-1732.08"/>
<polygon fill="#666666" stroke="#666666" stroke-width="2" points="173.25,-1732.08 168,-1717.08 162.75,-1732.08 173.25,-1732.08"/>
</g>
<!-- GVN -->
<g id="node8" class="node">
<title>GVN</title>
<g id="a_node8"><a xlink:href="#the-grand-library-global-value-numbering-gvn" xlink:title="GVN / CP / RLE">
<path fill="#f9f9f9" stroke="#333333" d="M300,-1555.35C300,-1555.35 36,-1555.35 36,-1555.35 30,-1555.35 24,-1549.35 24,-1543.35 24,-1543.35 24,-1480.95 24,-1480.95 24,-1474.95 30,-1468.95 36,-1468.95 36,-1468.95 300,-1468.95 300,-1468.95 306,-1468.95 312,-1474.95 312,-1480.95 312,-1480.95 312,-1543.35 312,-1543.35 312,-1549.35 306,-1555.35 300,-1555.35"/>
<text xml:space="preserve" text-anchor="middle" x="168" y="-1506.33" font-family="Arial" font-size="16.00">GVN / CP / RLE</text>
</a>
</g>
</g>
<!-- BlockCloning&#45;&gt;GVN -->
<g id="edge14" class="edge">
<title>BlockCloning&#45;&gt;GVN</title>
<path fill="none" stroke="#666666" stroke-width="2" d="M168,-1627.27C168,-1627.27 168,-1573.68 168,-1573.68"/>
<polygon fill="#666666" stroke="#666666" stroke-width="2" points="173.25,-1573.68 168,-1558.68 162.75,-1573.68 173.25,-1573.68"/>
</g>
<!-- CopyProp -->
<g id="node9" class="node">
<title>CopyProp</title>
<g id="a_node9"><a xlink:href="#the-vanishing-act-copy-propagation" xlink:title="Copy Propagation">
<path fill="#f9f9f9" stroke="#333333" d="M646,-1555.35C646,-1555.35 382,-1555.35 382,-1555.35 376,-1555.35 370,-1549.35 370,-1543.35 370,-1543.35 370,-1480.95 370,-1480.95 370,-1474.95 376,-1468.95 382,-1468.95 382,-1468.95 646,-1468.95 646,-1468.95 652,-1468.95 658,-1474.95 658,-1480.95 658,-1480.95 658,-1543.35 658,-1543.35 658,-1549.35 652,-1555.35 646,-1555.35"/>
<text xml:space="preserve" text-anchor="middle" x="514" y="-1506.33" font-family="Arial" font-size="16.00">Copy Propagation</text>
</a>
</g>
</g>
<!-- GVN&#45;&gt;CopyProp -->
<g id="edge1" class="edge">
<title>GVN&#45;&gt;CopyProp</title>
<path fill="none" stroke="#666666" stroke-width="2" d="M312.48,-1512C312.48,-1512 351.62,-1512 351.62,-1512"/>
<polygon fill="#666666" stroke="#666666" stroke-width="2" points="351.62,-1517.25 366.62,-1512 351.62,-1506.75 351.62,-1517.25"/>
</g>
<!-- DSE -->
<g id="node10" class="node">
<title>DSE</title>
<g id="a_node10"><a xlink:href="#cleaning-the-warehouses-dead-store-elimination-dse" xlink:title="Dead Store\nElimination">
<path fill="#f9f9f9" stroke="#333333" d="M992,-1555.35C992,-1555.35 728,-1555.35 728,-1555.35 722,-1555.35 716,-1549.35 716,-1543.35 716,-1543.35 716,-1480.95 716,-1480.95 716,-1474.95 722,-1468.95 728,-1468.95 728,-1468.95 992,-1468.95 992,-1468.95 998,-1468.95 1004,-1474.95 1004,-1480.95 1004,-1480.95 1004,-1543.35 1004,-1543.35 1004,-1549.35 998,-1555.35 992,-1555.35"/>
<text xml:space="preserve" text-anchor="middle" x="860" y="-1515.7" font-family="Arial" font-size="16.00">Dead Store</text>
<text xml:space="preserve" text-anchor="middle" x="860" y="-1496.95" font-family="Arial" font-size="16.00">Elimination</text>
</a>
</g>
</g>
<!-- CopyProp&#45;&gt;DSE -->
<g id="edge2" class="edge">
<title>CopyProp&#45;&gt;DSE</title>
<path fill="none" stroke="#666666" stroke-width="2" d="M658.48,-1512C658.48,-1512 697.62,-1512 697.62,-1512"/>
<polygon fill="#666666" stroke="#666666" stroke-width="2" points="697.62,-1517.25 712.62,-1512 697.62,-1506.75 697.62,-1517.25"/>
</g>
<!-- DCE1 -->
<g id="node11" class="node">
<title>DCE1</title>
<path fill="#f9f9f9" stroke="#333333" d="M1338,-1555.35C1338,-1555.35 1074,-1555.35 1074,-1555.35 1068,-1555.35 1062,-1549.35 1062,-1543.35 1062,-1543.35 1062,-1480.95 1062,-1480.95 1062,-1474.95 1068,-1468.95 1074,-1468.95 1074,-1468.95 1338,-1468.95 1338,-1468.95 1344,-1468.95 1350,-1474.95 1350,-1480.95 1350,-1480.95 1350,-1543.35 1350,-1543.35 1350,-1549.35 1344,-1555.35 1338,-1555.35"/>
<text xml:space="preserve" text-anchor="middle" x="1206" y="-1515.7" font-family="Arial" font-size="16.00">Dead Code</text>
<text xml:space="preserve" text-anchor="middle" x="1206" y="-1496.95" font-family="Arial" font-size="16.00">Elimination</text>
</g>
<!-- DSE&#45;&gt;DCE1 -->
<g id="edge3" class="edge">
<title>DSE&#45;&gt;DCE1</title>
<path fill="none" stroke="#666666" stroke-width="2" d="M1004.48,-1512C1004.48,-1512 1043.62,-1512 1043.62,-1512"/>
<polygon fill="#666666" stroke="#666666" stroke-width="2" points="1043.62,-1517.25 1058.62,-1512 1043.62,-1506.75 1043.62,-1517.25"/>
</g>
<!-- LICM -->
<g id="node12" class="node">
<title>LICM</title>
<g id="a_node12"><a xlink:href="#escaping-the-loop-loop-invariant-code-motion-licm" xlink:title="Loop Invariant\nMotion">
<path fill="#f9f9f9" stroke="#333333" d="M1684,-1555.35C1684,-1555.35 1420,-1555.35 1420,-1555.35 1414,-1555.35 1408,-1549.35 1408,-1543.35 1408,-1543.35 1408,-1480.95 1408,-1480.95 1408,-1474.95 1414,-1468.95 1420,-1468.95 1420,-1468.95 1684,-1468.95 1684,-1468.95 1690,-1468.95 1696,-1474.95 1696,-1480.95 1696,-1480.95 1696,-1543.35 1696,-1543.35 1696,-1549.35 1690,-1555.35 1684,-1555.35"/>
<text xml:space="preserve" text-anchor="middle" x="1552" y="-1515.7" font-family="Arial" font-size="16.00">Loop Invariant</text>
<text xml:space="preserve" text-anchor="middle" x="1552" y="-1496.95" font-family="Arial" font-size="16.00">Motion</text>
</a>
</g>
</g>
<!-- DCE1&#45;&gt;LICM -->
<g id="edge4" class="edge">
<title>DCE1&#45;&gt;LICM</title>
<path fill="none" stroke="#666666" stroke-width="2" d="M1350.48,-1512C1350.48,-1512 1389.62,-1512 1389.62,-1512"/>
<polygon fill="#666666" stroke="#666666" stroke-width="2" points="1389.62,-1517.25 1404.62,-1512 1389.62,-1506.75 1389.62,-1517.25"/>
</g>
<!-- PressureRelief -->
<g id="node13" class="node">
<title>PressureRelief</title>
<path fill="#f9f9f9" stroke="#333333" d="M1684,-1396.95C1684,-1396.95 1420,-1396.95 1420,-1396.95 1414,-1396.95 1408,-1390.95 1408,-1384.95 1408,-1384.95 1408,-1322.55 1408,-1322.55 1408,-1316.55 1414,-1310.55 1420,-1310.55 1420,-1310.55 1684,-1310.55 1684,-1310.55 1690,-1310.55 1696,-1316.55 1696,-1322.55 1696,-1322.55 1696,-1384.95 1696,-1384.95 1696,-1390.95 1690,-1396.95 1684,-1396.95"/>
<text xml:space="preserve" text-anchor="middle" x="1552" y="-1347.92" font-family="Arial" font-size="16.00">Pressure Relief</text>
</g>
<!-- LICM&#45;&gt;PressureRelief -->
<g id="edge15" class="edge">
<title>LICM&#45;&gt;PressureRelief</title>
<path fill="none" stroke="#666666" stroke-width="2" d="M1552,-1468.87C1552,-1468.87 1552,-1415.28 1552,-1415.28"/>
<polygon fill="#666666" stroke="#666666" stroke-width="2" points="1557.25,-1415.28 1552,-1400.28 1546.75,-1415.28 1557.25,-1415.28"/>
</g>
<!-- SSACombine -->
<g id="node14" class="node">
<title>SSACombine</title>
<g id="a_node14"><a xlink:href="#the-merging-pass-instruction-combining-ssa-combine" xlink:title="SSA Combine">
<path fill="#f9f9f9" stroke="#333333" d="M1684,-1238.55C1684,-1238.55 1420,-1238.55 1420,-1238.55 1414,-1238.55 1408,-1232.55 1408,-1226.55 1408,-1226.55 1408,-1164.15 1408,-1164.15 1408,-1158.15 1414,-1152.15 1420,-1152.15 1420,-1152.15 1684,-1152.15 1684,-1152.15 1690,-1152.15 1696,-1158.15 1696,-1164.15 1696,-1164.15 1696,-1226.55 1696,-1226.55 1696,-1232.55 1690,-1238.55 1684,-1238.55"/>
<text xml:space="preserve" text-anchor="middle" x="1552" y="-1189.52" font-family="Arial" font-size="16.00">SSA Combine</text>
</a>
</g>
</g>
<!-- PressureRelief&#45;&gt;SSACombine -->
<g id="edge16" class="edge">
<title>PressureRelief&#45;&gt;SSACombine</title>
<path fill="none" stroke="#666666" stroke-width="2" d="M1552,-1310.47C1552,-1310.47 1552,-1256.88 1552,-1256.88"/>
<polygon fill="#666666" stroke="#666666" stroke-width="2" points="1557.25,-1256.88 1552,-1241.88 1546.75,-1256.88 1557.25,-1256.88"/>
</g>
<!-- OutSSA -->
<g id="node15" class="node">
<title>OutSSA</title>
<g id="a_node15"><a xlink:href="#the-final-handover-conventional-ssa-make-conventional-ssa" xlink:title="Out of SSA">
<path fill="#f9f9f9" stroke="#333333" d="M1684,-1080.15C1684,-1080.15 1420,-1080.15 1420,-1080.15 1414,-1080.15 1408,-1074.15 1408,-1068.15 1408,-1068.15 1408,-1005.75 1408,-1005.75 1408,-999.75 1414,-993.75 1420,-993.75 1420,-993.75 1684,-993.75 1684,-993.75 1690,-993.75 1696,-999.75 1696,-1005.75 1696,-1005.75 1696,-1068.15 1696,-1068.15 1696,-1074.15 1690,-1080.15 1684,-1080.15"/>
<text xml:space="preserve" text-anchor="middle" x="1552" y="-1031.12" font-family="Arial" font-size="16.00">Out of SSA</text>
</a>
</g>
</g>
<!-- SSACombine&#45;&gt;OutSSA -->
<g id="edge17" class="edge">
<title>SSACombine&#45;&gt;OutSSA</title>
<path fill="none" stroke="#666666" stroke-width="2" d="M1552,-1152.07C1552,-1152.07 1552,-1098.48 1552,-1098.48"/>
<polygon fill="#666666" stroke="#666666" stroke-width="2" points="1557.25,-1098.48 1552,-1083.48 1546.75,-1098.48 1557.25,-1098.48"/>
</g>
<!-- JumpOpts -->
<g id="node16" class="node">
<title>JumpOpts</title>
<g id="a_node16"><a xlink:href="#the-path-smoother-jump-optimization-jump-opt" xlink:title="Jump Opts">
<path fill="#f9f9f9" stroke="#333333" d="M1684,-921.75C1684,-921.75 1420,-921.75 1420,-921.75 1414,-921.75 1408,-915.75 1408,-909.75 1408,-909.75 1408,-847.35 1408,-847.35 1408,-841.35 1414,-835.35 1420,-835.35 1420,-835.35 1684,-835.35 1684,-835.35 1690,-835.35 1696,-841.35 1696,-847.35 1696,-847.35 1696,-909.75 1696,-909.75 1696,-915.75 1690,-921.75 1684,-921.75"/>
<text xml:space="preserve" text-anchor="middle" x="1552" y="-872.72" font-family="Arial" font-size="16.00">Jump Opts</text>
</a>
</g>
</g>
<!-- OutSSA&#45;&gt;JumpOpts -->
<g id="edge18" class="edge">
<title>OutSSA&#45;&gt;JumpOpts</title>
<path fill="none" stroke="#666666" stroke-width="2" d="M1552,-993.67C1552,-993.67 1552,-940.08 1552,-940.08"/>
<polygon fill="#666666" stroke="#666666" stroke-width="2" points="1557.25,-940.08 1552,-925.08 1546.75,-940.08 1557.25,-940.08"/>
</g>
<!-- Machinize -->
<g id="node17" class="node">
<title>Machinize</title>
<g id="a_node17"><a xlink:href="#handover-to-the-metal-target-translation" xlink:title="Machinize">
<path fill="#fff9c4" stroke="#333333" d="M1684,-741.6C1684,-741.6 1420,-741.6 1420,-741.6 1414,-741.6 1408,-735.6 1408,-729.6 1408,-729.6 1408,-667.2 1408,-667.2 1408,-661.2 1414,-655.2 1420,-655.2 1420,-655.2 1684,-655.2 1684,-655.2 1690,-655.2 1696,-661.2 1696,-667.2 1696,-667.2 1696,-729.6 1696,-729.6 1696,-735.6 1690,-741.6 1684,-741.6"/>
<text xml:space="preserve" text-anchor="middle" x="1552" y="-692.57" font-family="Arial" font-size="16.00">Machinize</text>
</a>
</g>
</g>
<!-- JumpOpts&#45;&gt;Machinize -->
<g id="edge19" class="edge">
<title>JumpOpts&#45;&gt;Machinize</title>
<path fill="none" stroke="#666666" stroke-width="2" d="M1552,-834.94C1552,-834.94 1552,-759.95 1552,-759.95"/>
<polygon fill="#666666" stroke="#666666" stroke-width="2" points="1557.25,-759.95 1552,-744.95 1546.75,-759.95 1557.25,-759.95"/>
</g>
<!-- BuildLive -->
<g id="node18" class="node">
<title>BuildLive</title>
<g id="a_node18"><a xlink:href="#mapping-existence-live-range-analysis" xlink:title="Build Live Info">
<path fill="#f9f9f9" stroke="#333333" d="M2030,-741.6C2030,-741.6 1766,-741.6 1766,-741.6 1760,-741.6 1754,-735.6 1754,-729.6 1754,-729.6 1754,-667.2 1754,-667.2 1754,-661.2 1760,-655.2 1766,-655.2 1766,-655.2 2030,-655.2 2030,-655.2 2036,-655.2 2042,-661.2 2042,-667.2 2042,-667.2 2042,-729.6 2042,-729.6 2042,-735.6 2036,-741.6 2030,-741.6"/>
<text xml:space="preserve" text-anchor="middle" x="1898" y="-692.57" font-family="Arial" font-size="16.00">Build Live Info</text>
</a>
</g>
</g>
<!-- Machinize&#45;&gt;BuildLive -->
<g id="edge5" class="edge">
<title>Machinize&#45;&gt;BuildLive</title>
<path fill="none" stroke="#666666" stroke-width="2" d="M1696.48,-698C1696.48,-698 1735.62,-698 1735.62,-698"/>
<polygon fill="#666666" stroke="#666666" stroke-width="2" points="1735.62,-703.25 1750.62,-698 1735.62,-692.75 1735.62,-703.25"/>
</g>
<!-- BuildConflicts -->
<g id="node19" class="node">
<title>BuildConflicts</title>
<g id="a_node19"><a xlink:href="#aggressive-register-coalescing-coalesce" xlink:title="Build Register\nConflicts">
<path fill="#f9f9f9" stroke="#333333" d="M2376,-741.6C2376,-741.6 2112,-741.6 2112,-741.6 2106,-741.6 2100,-735.6 2100,-729.6 2100,-729.6 2100,-667.2 2100,-667.2 2100,-661.2 2106,-655.2 2112,-655.2 2112,-655.2 2376,-655.2 2376,-655.2 2382,-655.2 2388,-661.2 2388,-667.2 2388,-667.2 2388,-729.6 2388,-729.6 2388,-735.6 2382,-741.6 2376,-741.6"/>
<text xml:space="preserve" text-anchor="middle" x="2244" y="-701.95" font-family="Arial" font-size="16.00">Build Register</text>
<text xml:space="preserve" text-anchor="middle" x="2244" y="-683.2" font-family="Arial" font-size="16.00">Conflicts</text>
</a>
</g>
</g>
<!-- BuildLive&#45;&gt;BuildConflicts -->
<g id="edge6" class="edge">
<title>BuildLive&#45;&gt;BuildConflicts</title>
<path fill="none" stroke="#666666" stroke-width="2" d="M2042.48,-698C2042.48,-698 2081.62,-698 2081.62,-698"/>
<polygon fill="#666666" stroke="#666666" stroke-width="2" points="2081.62,-703.25 2096.62,-698 2081.62,-692.75 2081.62,-703.25"/>
</g>
<!-- Coalesce -->
<g id="node20" class="node">
<title>Coalesce</title>
<path fill="#f9f9f9" stroke="#333333" d="M2722,-741.6C2722,-741.6 2458,-741.6 2458,-741.6 2452,-741.6 2446,-735.6 2446,-729.6 2446,-729.6 2446,-667.2 2446,-667.2 2446,-661.2 2452,-655.2 2458,-655.2 2458,-655.2 2722,-655.2 2722,-655.2 2728,-655.2 2734,-661.2 2734,-667.2 2734,-667.2 2734,-729.6 2734,-729.6 2734,-735.6 2728,-741.6 2722,-741.6"/>
<text xml:space="preserve" text-anchor="middle" x="2590" y="-692.57" font-family="Arial" font-size="16.00">Coalesce</text>
</g>
<!-- BuildConflicts&#45;&gt;Coalesce -->
<g id="edge7" class="edge">
<title>BuildConflicts&#45;&gt;Coalesce</title>
<path fill="none" stroke="#666666" stroke-width="2" d="M2388.48,-698C2388.48,-698 2427.62,-698 2427.62,-698"/>
<polygon fill="#666666" stroke="#666666" stroke-width="2" points="2427.62,-703.25 2442.62,-698 2427.62,-692.75 2427.62,-703.25"/>
</g>
<!-- RA -->
<g id="node21" class="node">
<title>RA</title>
<g id="a_node21"><a xlink:href="#the-allocation-war-linear-scan-ra" xlink:title="Register Allocator\n(Linear Scan)">
<path fill="#ffebee" stroke="#333333" d="M3068,-741.6C3068,-741.6 2804,-741.6 2804,-741.6 2798,-741.6 2792,-735.6 2792,-729.6 2792,-729.6 2792,-667.2 2792,-667.2 2792,-661.2 2798,-655.2 2804,-655.2 2804,-655.2 3068,-655.2 3068,-655.2 3074,-655.2 3080,-661.2 3080,-667.2 3080,-667.2 3080,-729.6 3080,-729.6 3080,-735.6 3074,-741.6 3068,-741.6"/>
<text xml:space="preserve" text-anchor="middle" x="2936" y="-701.95" font-family="Arial" font-size="16.00">Register Allocator</text>
<text xml:space="preserve" text-anchor="middle" x="2936" y="-683.2" font-family="Arial" font-size="16.00">(Linear Scan)</text>
</a>
</g>
</g>
<!-- Coalesce&#45;&gt;RA -->
<g id="edge8" class="edge">
<title>Coalesce&#45;&gt;RA</title>
<path fill="none" stroke="#666666" stroke-width="2" d="M2734.48,-698C2734.48,-698 2773.62,-698 2773.62,-698"/>
<polygon fill="#666666" stroke="#666666" stroke-width="2" points="2773.62,-703.25 2788.62,-698 2773.62,-692.75 2773.62,-703.25"/>
</g>
<!-- Combine -->
<g id="node22" class="node">
<title>Combine</title>
<path fill="#f9f9f9" stroke="#333333" d="M3068,-583.2C3068,-583.2 2804,-583.2 2804,-583.2 2798,-583.2 2792,-577.2 2792,-571.2 2792,-571.2 2792,-508.8 2792,-508.8 2792,-502.8 2798,-496.8 2804,-496.8 2804,-496.8 3068,-496.8 3068,-496.8 3074,-496.8 3080,-502.8 3080,-508.8 3080,-508.8 3080,-571.2 3080,-571.2 3080,-577.2 3074,-583.2 3068,-583.2"/>
<text xml:space="preserve" text-anchor="middle" x="2936" y="-543.55" font-family="Arial" font-size="16.00">Combine</text>
<text xml:space="preserve" text-anchor="middle" x="2936" y="-524.8" font-family="Arial" font-size="16.00">(Code Selection)</text>
</g>
<!-- RA&#45;&gt;Combine -->
<g id="edge20" class="edge">
<title>RA&#45;&gt;Combine</title>
<path fill="none" stroke="#666666" stroke-width="2" d="M2936,-655.12C2936,-655.12 2936,-601.53 2936,-601.53"/>
<polygon fill="#666666" stroke="#666666" stroke-width="2" points="2941.25,-601.53 2936,-586.53 2930.75,-601.53 2941.25,-601.53"/>
</g>
<!-- DCE2 -->
<g id="node23" class="node">
<title>DCE2</title>
<path fill="#f9f9f9" stroke="#333333" d="M3068,-424.8C3068,-424.8 2804,-424.8 2804,-424.8 2798,-424.8 2792,-418.8 2792,-412.8 2792,-412.8 2792,-350.4 2792,-350.4 2792,-344.4 2798,-338.4 2804,-338.4 2804,-338.4 3068,-338.4 3068,-338.4 3074,-338.4 3080,-344.4 3080,-350.4 3080,-350.4 3080,-412.8 3080,-412.8 3080,-418.8 3074,-424.8 3068,-424.8"/>
<text xml:space="preserve" text-anchor="middle" x="2936" y="-385.15" font-family="Arial" font-size="16.00">Dead Code</text>
<text xml:space="preserve" text-anchor="middle" x="2936" y="-366.4" font-family="Arial" font-size="16.00">Elimination</text>
</g>
<!-- Combine&#45;&gt;DCE2 -->
<g id="edge21" class="edge">
<title>Combine&#45;&gt;DCE2</title>
<path fill="none" stroke="#666666" stroke-width="2" d="M2936,-496.72C2936,-496.72 2936,-443.13 2936,-443.13"/>
<polygon fill="#666666" stroke="#666666" stroke-width="2" points="2941.25,-443.13 2936,-428.13 2930.75,-443.13 2941.25,-443.13"/>
</g>
<!-- GenMachine -->
<g id="node24" class="node">
<title>GenMachine</title>
<path fill="#fff9c4" stroke="#333333" d="M3068,-266.4C3068,-266.4 2804,-266.4 2804,-266.4 2798,-266.4 2792,-260.4 2792,-254.4 2792,-254.4 2792,-192 2792,-192 2792,-186 2798,-180 2804,-180 2804,-180 3068,-180 3068,-180 3074,-180 3080,-186 3080,-192 3080,-192 3080,-254.4 3080,-254.4 3080,-260.4 3074,-266.4 3068,-266.4"/>
<text xml:space="preserve" text-anchor="middle" x="2936" y="-226.75" font-family="Arial" font-size="16.00">Generate Machine</text>
<text xml:space="preserve" text-anchor="middle" x="2936" y="-208" font-family="Arial" font-size="16.00">Instructions</text>
</g>
<!-- DCE2&#45;&gt;GenMachine -->
<g id="edge22" class="edge">
<title>DCE2&#45;&gt;GenMachine</title>
<path fill="none" stroke="#666666" stroke-width="2" d="M2936,-338.32C2936,-338.32 2936,-284.73 2936,-284.73"/>
<polygon fill="#666666" stroke="#666666" stroke-width="2" points="2941.25,-284.73 2936,-269.73 2930.75,-284.73 2941.25,-284.73"/>
</g>
<!-- GenMachine&#45;&gt;MachineCode -->
<g id="edge23" class="edge">
<title>GenMachine&#45;&gt;MachineCode</title>
<path fill="none" stroke="#666666" stroke-width="2" d="M2936,-179.63C2936,-179.63 2936,-126.36 2936,-126.36"/>
<polygon fill="#666666" stroke="#666666" stroke-width="2" points="2941.25,-126.36 2936,-111.36 2930.75,-126.36 2941.25,-126.36"/>
</g>
</g>
</svg>
