<?xml version="1.0" encoding="UTF-8" standalone="no"?>
<!DOCTYPE svg PUBLIC "-//W3C//DTD SVG 1.1//EN"
 "http://www.w3.org/Graphics/SVG/1.1/DTD/svg11.dtd">
<!-- Generated by graphviz version 14.0.5 (0)
 -->
<!-- Title: MIR_Optimization_Pipeline Pages: 1 -->
<svg width="238pt" height="1737pt"
 viewBox="0.00 0.00 238.00 1737.00" xmlns="http://www.w3.org/2000/svg" xmlns:xlink="http://www.w3.org/1999/xlink">
<g id="graph0" class="graph" transform="scale(1 1) rotate(0) translate(4 1733)">
<title>MIR_Optimization_Pipeline</title>
<polygon fill="white" stroke="none" points="-4,4 -4,-1733 234,-1733 234,4 -4,4"/>
<g id="clust1" class="cluster">
<title>cluster_frontend</title>
<polygon fill="none" stroke="#cccccc" stroke-dasharray="5,2" points="44,-1607.75 44,-1685 173,-1685 173,-1607.75 44,-1607.75"/>
<text xml:space="preserve" text-anchor="middle" x="108.5" y="-1667.7" font-family="Times,serif" font-size="14.00">Frontend / Core</text>
</g>
<g id="clust2" class="cluster">
<title>cluster_middle_end</title>
<polygon fill="none" stroke="#cccccc" stroke-dasharray="5,2" points="8,-653.25 8,-1599.75 193,-1599.75 193,-653.25 8,-653.25"/>
<text xml:space="preserve" text-anchor="middle" x="100.5" y="-1582.45" font-family="Times,serif" font-size="14.00">Optimizer (Middle&#45;End)</text>
</g>
<g id="clust3" class="cluster">
<title>cluster_ssa_opts</title>
<polygon fill="none" stroke="#cccccc" stroke-dasharray="5,2" points="25,-941.25 25,-1306.5 175,-1306.5 175,-941.25 25,-941.25"/>
<text xml:space="preserve" text-anchor="middle" x="100" y="-1289.2" font-family="Times,serif" font-size="14.00">SSA Optimizations</text>
</g>
<g id="clust4" class="cluster">
<title>cluster_backend</title>
<polygon fill="none" stroke="#cccccc" stroke-dasharray="5,2" points="23,-64 23,-645.25 222,-645.25 222,-64 23,-64"/>
<text xml:space="preserve" text-anchor="middle" x="122.5" y="-627.95" font-family="Times,serif" font-size="14.00">Backend (Target&#45;Specific)</text>
</g>
<!-- MIR -->
<g id="node1" class="node">
<title>MIR</title>
<ellipse fill="#e1f5fe" stroke="#333333" cx="100" cy="-1711" rx="29.01" ry="18"/>
<text xml:space="preserve" text-anchor="middle" x="100" y="-1707.5" font-family="Arial" font-size="10.00">MIR IR</text>
</g>
<!-- Simplify -->
<g id="node3" class="node">
<title>Simplify</title>
<g id="a_node3"><a xlink:href="19_mir_implementation.html#the-simplifier-s-toolbox-simplify-func" xlink:title="Simplify\n(Lowering MIR)">
<path fill="#e8f5e9" stroke="#333333" d="M129.38,-1651.75C129.38,-1651.75 70.62,-1651.75 70.62,-1651.75 64.62,-1651.75 58.62,-1645.75 58.62,-1639.75 58.62,-1639.75 58.62,-1627.75 58.62,-1627.75 58.62,-1621.75 64.62,-1615.75 70.62,-1615.75 70.62,-1615.75 129.38,-1615.75 129.38,-1615.75 135.38,-1615.75 141.38,-1621.75 141.38,-1627.75 141.38,-1627.75 141.38,-1639.75 141.38,-1639.75 141.38,-1645.75 135.38,-1651.75 129.38,-1651.75"/>
<text xml:space="preserve" text-anchor="middle" x="100" y="-1636.25" font-family="Arial" font-size="10.00">Simplify</text>
<text xml:space="preserve" text-anchor="middle" x="100" y="-1624.25" font-family="Arial" font-size="10.00">(Lowering MIR)</text>
</a>
</g>
</g>
<!-- MIR&#45;&gt;Simplify -->
<g id="edge1" class="edge">
<title>MIR&#45;&gt;Simplify</title>
<path fill="none" stroke="#666666" stroke-width="1.2" d="M100,-1692.55C100,-1684 100,-1673.48 100,-1663.77"/>
<polygon fill="#666666" stroke="#666666" stroke-width="1.2" points="103.5,-1663.92 100,-1653.92 96.5,-1663.92 103.5,-1663.92"/>
</g>
<!-- MachineCode -->
<g id="node2" class="node">
<title>MachineCode</title>
<ellipse fill="#fff3e0" stroke="#333333" cx="100" cy="-18" rx="66.45" ry="18"/>
<text xml:space="preserve" text-anchor="middle" x="100" y="-14.5" font-family="Arial" font-size="10.00">Native Machine Code</text>
</g>
<!-- BuildCFG -->
<g id="node4" class="node">
<title>BuildCFG</title>
<g id="a_node4"><a xlink:href="#the-architect-s-blueprint-build-func-cfg" xlink:title="Build CFG">
<path fill="#f9f9f9" stroke="#333333" d="M118.88,-1566.5C118.88,-1566.5 81.12,-1566.5 81.12,-1566.5 75.12,-1566.5 69.12,-1560.5 69.12,-1554.5 69.12,-1554.5 69.12,-1542.5 69.12,-1542.5 69.12,-1536.5 75.12,-1530.5 81.12,-1530.5 81.12,-1530.5 118.88,-1530.5 118.88,-1530.5 124.88,-1530.5 130.88,-1536.5 130.88,-1542.5 130.88,-1542.5 130.88,-1554.5 130.88,-1554.5 130.88,-1560.5 124.88,-1566.5 118.88,-1566.5"/>
<text xml:space="preserve" text-anchor="middle" x="100" y="-1545" font-family="Arial" font-size="10.00">Build CFG</text>
</a>
</g>
</g>
<!-- Simplify&#45;&gt;BuildCFG -->
<g id="edge2" class="edge">
<title>Simplify&#45;&gt;BuildCFG</title>
<path fill="none" stroke="#666666" stroke-width="1.2" d="M100,-1615.5C100,-1604.78 100,-1590.74 100,-1578.36"/>
<polygon fill="#666666" stroke="#666666" stroke-width="1.2" points="103.5,-1578.54 100,-1568.54 96.5,-1578.54 103.5,-1578.54"/>
</g>
<!-- BuildSSA -->
<g id="node5" class="node">
<title>BuildSSA</title>
<g id="a_node5"><a xlink:href="#the-single-truth-ssa-construction" xlink:title="Build SSA">
<path fill="#f9f9f9" stroke="#333333" d="M118.5,-1494.5C118.5,-1494.5 81.5,-1494.5 81.5,-1494.5 75.5,-1494.5 69.5,-1488.5 69.5,-1482.5 69.5,-1482.5 69.5,-1470.5 69.5,-1470.5 69.5,-1464.5 75.5,-1458.5 81.5,-1458.5 81.5,-1458.5 118.5,-1458.5 118.5,-1458.5 124.5,-1458.5 130.5,-1464.5 130.5,-1470.5 130.5,-1470.5 130.5,-1482.5 130.5,-1482.5 130.5,-1488.5 124.5,-1494.5 118.5,-1494.5"/>
<text xml:space="preserve" text-anchor="middle" x="100" y="-1473" font-family="Arial" font-size="10.00">Build SSA</text>
</a>
</g>
</g>
<!-- BuildCFG&#45;&gt;BuildSSA -->
<g id="edge3" class="edge">
<title>BuildCFG&#45;&gt;BuildSSA</title>
<path fill="none" stroke="#666666" stroke-width="1.2" d="M100,-1530.2C100,-1522.99 100,-1514.43 100,-1506.32"/>
<polygon fill="#666666" stroke="#666666" stroke-width="1.2" points="103.5,-1506.42 100,-1496.42 96.5,-1506.42 103.5,-1506.42"/>
</g>
<!-- AddrTrans -->
<g id="node6" class="node">
<title>AddrTrans</title>
<g id="a_node6"><a xlink:href="#from-abstract-to-concrete-address-transformation" xlink:title="Address\nTransformation">
<path fill="#f9f9f9" stroke="#333333" d="M128.62,-1422.5C128.62,-1422.5 71.38,-1422.5 71.38,-1422.5 65.38,-1422.5 59.38,-1416.5 59.38,-1410.5 59.38,-1410.5 59.38,-1398.5 59.38,-1398.5 59.38,-1392.5 65.38,-1386.5 71.38,-1386.5 71.38,-1386.5 128.62,-1386.5 128.62,-1386.5 134.62,-1386.5 140.62,-1392.5 140.62,-1398.5 140.62,-1398.5 140.62,-1410.5 140.62,-1410.5 140.62,-1416.5 134.62,-1422.5 128.62,-1422.5"/>
<text xml:space="preserve" text-anchor="middle" x="100" y="-1407" font-family="Arial" font-size="10.00">Address</text>
<text xml:space="preserve" text-anchor="middle" x="100" y="-1395" font-family="Arial" font-size="10.00">Transformation</text>
</a>
</g>
</g>
<!-- BuildSSA&#45;&gt;AddrTrans -->
<g id="edge4" class="edge">
<title>BuildSSA&#45;&gt;AddrTrans</title>
<path fill="none" stroke="#666666" stroke-width="1.2" d="M100,-1458.2C100,-1450.99 100,-1442.43 100,-1434.32"/>
<polygon fill="#666666" stroke="#666666" stroke-width="1.2" points="103.5,-1434.42 100,-1424.42 96.5,-1434.42 103.5,-1434.42"/>
</g>
<!-- BlockCloning -->
<g id="node7" class="node">
<title>BlockCloning</title>
<g id="a_node7"><a xlink:href="#path-specialization-basic-block-cloning" xlink:title="Block Cloning">
<path fill="#f9f9f9" stroke="#333333" d="M126.38,-1350.5C126.38,-1350.5 73.62,-1350.5 73.62,-1350.5 67.62,-1350.5 61.62,-1344.5 61.62,-1338.5 61.62,-1338.5 61.62,-1326.5 61.62,-1326.5 61.62,-1320.5 67.62,-1314.5 73.62,-1314.5 73.62,-1314.5 126.38,-1314.5 126.38,-1314.5 132.38,-1314.5 138.38,-1320.5 138.38,-1326.5 138.38,-1326.5 138.38,-1338.5 138.38,-1338.5 138.38,-1344.5 132.38,-1350.5 126.38,-1350.5"/>
<text xml:space="preserve" text-anchor="middle" x="100" y="-1329" font-family="Arial" font-size="10.00">Block Cloning</text>
</a>
</g>
</g>
<!-- AddrTrans&#45;&gt;BlockCloning -->
<g id="edge5" class="edge">
<title>AddrTrans&#45;&gt;BlockCloning</title>
<path fill="none" stroke="#666666" stroke-width="1.2" d="M100,-1386.2C100,-1378.99 100,-1370.43 100,-1362.32"/>
<polygon fill="#666666" stroke="#666666" stroke-width="1.2" points="103.5,-1362.42 100,-1352.42 96.5,-1362.42 103.5,-1362.42"/>
</g>
<!-- GVN -->
<g id="node8" class="node">
<title>GVN</title>
<g id="a_node8"><a xlink:href="#the-grand-library-global-value-numbering-gvn" xlink:title="GVN / CP / RLE">
<path fill="#f9f9f9" stroke="#333333" d="M132.75,-1273.25C132.75,-1273.25 67.25,-1273.25 67.25,-1273.25 61.25,-1273.25 55.25,-1267.25 55.25,-1261.25 55.25,-1261.25 55.25,-1249.25 55.25,-1249.25 55.25,-1243.25 61.25,-1237.25 67.25,-1237.25 67.25,-1237.25 132.75,-1237.25 132.75,-1237.25 138.75,-1237.25 144.75,-1243.25 144.75,-1249.25 144.75,-1249.25 144.75,-1261.25 144.75,-1261.25 144.75,-1267.25 138.75,-1273.25 132.75,-1273.25"/>
<text xml:space="preserve" text-anchor="middle" x="100" y="-1251.75" font-family="Arial" font-size="10.00">GVN / CP / RLE</text>
</a>
</g>
</g>
<!-- BlockCloning&#45;&gt;GVN -->
<g id="edge6" class="edge">
<title>BlockCloning&#45;&gt;GVN</title>
<path fill="none" stroke="#666666" stroke-width="1.2" d="M100,-1314.05C100,-1305.5 100,-1294.98 100,-1285.27"/>
<polygon fill="#666666" stroke="#666666" stroke-width="1.2" points="103.5,-1285.42 100,-1275.42 96.5,-1285.42 103.5,-1285.42"/>
</g>
<!-- CopyProp -->
<g id="node9" class="node">
<title>CopyProp</title>
<g id="a_node9"><a xlink:href="#the-vanishing-act-copy-propagation" xlink:title="Copy Propagation">
<path fill="#f9f9f9" stroke="#333333" d="M135,-1201.25C135,-1201.25 65,-1201.25 65,-1201.25 59,-1201.25 53,-1195.25 53,-1189.25 53,-1189.25 53,-1177.25 53,-1177.25 53,-1171.25 59,-1165.25 65,-1165.25 65,-1165.25 135,-1165.25 135,-1165.25 141,-1165.25 147,-1171.25 147,-1177.25 147,-1177.25 147,-1189.25 147,-1189.25 147,-1195.25 141,-1201.25 135,-1201.25"/>
<text xml:space="preserve" text-anchor="middle" x="100" y="-1179.75" font-family="Arial" font-size="10.00">Copy Propagation</text>
</a>
</g>
</g>
<!-- GVN&#45;&gt;CopyProp -->
<g id="edge7" class="edge">
<title>GVN&#45;&gt;CopyProp</title>
<path fill="none" stroke="#666666" stroke-width="1.2" d="M100,-1236.95C100,-1229.74 100,-1221.18 100,-1213.07"/>
<polygon fill="#666666" stroke="#666666" stroke-width="1.2" points="103.5,-1213.17 100,-1203.17 96.5,-1213.17 103.5,-1213.17"/>
</g>
<!-- DSE -->
<g id="node10" class="node">
<title>DSE</title>
<g id="a_node10"><a xlink:href="#cleaning-the-warehouses-dead-store-elimination-dse" xlink:title="Dead Store\nElimination">
<path fill="#f9f9f9" stroke="#333333" d="M120.75,-1129.25C120.75,-1129.25 79.25,-1129.25 79.25,-1129.25 73.25,-1129.25 67.25,-1123.25 67.25,-1117.25 67.25,-1117.25 67.25,-1105.25 67.25,-1105.25 67.25,-1099.25 73.25,-1093.25 79.25,-1093.25 79.25,-1093.25 120.75,-1093.25 120.75,-1093.25 126.75,-1093.25 132.75,-1099.25 132.75,-1105.25 132.75,-1105.25 132.75,-1117.25 132.75,-1117.25 132.75,-1123.25 126.75,-1129.25 120.75,-1129.25"/>
<text xml:space="preserve" text-anchor="middle" x="100" y="-1113.75" font-family="Arial" font-size="10.00">Dead Store</text>
<text xml:space="preserve" text-anchor="middle" x="100" y="-1101.75" font-family="Arial" font-size="10.00">Elimination</text>
</a>
</g>
</g>
<!-- CopyProp&#45;&gt;DSE -->
<g id="edge8" class="edge">
<title>CopyProp&#45;&gt;DSE</title>
<path fill="none" stroke="#666666" stroke-width="1.2" d="M100,-1164.95C100,-1157.74 100,-1149.18 100,-1141.07"/>
<polygon fill="#666666" stroke="#666666" stroke-width="1.2" points="103.5,-1141.17 100,-1131.17 96.5,-1141.17 103.5,-1141.17"/>
</g>
<!-- DCE1 -->
<g id="node11" class="node">
<title>DCE1</title>
<path fill="#f9f9f9" stroke="#333333" d="M120.75,-1057.25C120.75,-1057.25 79.25,-1057.25 79.25,-1057.25 73.25,-1057.25 67.25,-1051.25 67.25,-1045.25 67.25,-1045.25 67.25,-1033.25 67.25,-1033.25 67.25,-1027.25 73.25,-1021.25 79.25,-1021.25 79.25,-1021.25 120.75,-1021.25 120.75,-1021.25 126.75,-1021.25 132.75,-1027.25 132.75,-1033.25 132.75,-1033.25 132.75,-1045.25 132.75,-1045.25 132.75,-1051.25 126.75,-1057.25 120.75,-1057.25"/>
<text xml:space="preserve" text-anchor="middle" x="100" y="-1041.75" font-family="Arial" font-size="10.00">Dead Code</text>
<text xml:space="preserve" text-anchor="middle" x="100" y="-1029.75" font-family="Arial" font-size="10.00">Elimination</text>
</g>
<!-- DSE&#45;&gt;DCE1 -->
<g id="edge9" class="edge">
<title>DSE&#45;&gt;DCE1</title>
<path fill="none" stroke="#666666" stroke-width="1.2" d="M100,-1092.95C100,-1085.74 100,-1077.18 100,-1069.07"/>
<polygon fill="#666666" stroke="#666666" stroke-width="1.2" points="103.5,-1069.17 100,-1059.17 96.5,-1069.17 103.5,-1069.17"/>
</g>
<!-- LICM -->
<g id="node12" class="node">
<title>LICM</title>
<g id="a_node12"><a xlink:href="#escaping-the-loop-loop-invariant-code-motion-licm" xlink:title="Loop Invariant\nMotion">
<path fill="#f9f9f9" stroke="#333333" d="M126.75,-985.25C126.75,-985.25 73.25,-985.25 73.25,-985.25 67.25,-985.25 61.25,-979.25 61.25,-973.25 61.25,-973.25 61.25,-961.25 61.25,-961.25 61.25,-955.25 67.25,-949.25 73.25,-949.25 73.25,-949.25 126.75,-949.25 126.75,-949.25 132.75,-949.25 138.75,-955.25 138.75,-961.25 138.75,-961.25 138.75,-973.25 138.75,-973.25 138.75,-979.25 132.75,-985.25 126.75,-985.25"/>
<text xml:space="preserve" text-anchor="middle" x="100" y="-969.75" font-family="Arial" font-size="10.00">Loop Invariant</text>
<text xml:space="preserve" text-anchor="middle" x="100" y="-957.75" font-family="Arial" font-size="10.00">Motion</text>
</a>
</g>
</g>
<!-- DCE1&#45;&gt;LICM -->
<g id="edge10" class="edge">
<title>DCE1&#45;&gt;LICM</title>
<path fill="none" stroke="#666666" stroke-width="1.2" d="M100,-1020.95C100,-1013.74 100,-1005.18 100,-997.07"/>
<polygon fill="#666666" stroke="#666666" stroke-width="1.2" points="103.5,-997.17 100,-987.17 96.5,-997.17 103.5,-997.17"/>
</g>
<!-- PressureRelief -->
<g id="node13" class="node">
<title>PressureRelief</title>
<path fill="#f9f9f9" stroke="#333333" d="M129.75,-913.25C129.75,-913.25 70.25,-913.25 70.25,-913.25 64.25,-913.25 58.25,-907.25 58.25,-901.25 58.25,-901.25 58.25,-889.25 58.25,-889.25 58.25,-883.25 64.25,-877.25 70.25,-877.25 70.25,-877.25 129.75,-877.25 129.75,-877.25 135.75,-877.25 141.75,-883.25 141.75,-889.25 141.75,-889.25 141.75,-901.25 141.75,-901.25 141.75,-907.25 135.75,-913.25 129.75,-913.25"/>
<text xml:space="preserve" text-anchor="middle" x="100" y="-891.75" font-family="Arial" font-size="10.00">Pressure Relief</text>
</g>
<!-- LICM&#45;&gt;PressureRelief -->
<g id="edge11" class="edge">
<title>LICM&#45;&gt;PressureRelief</title>
<path fill="none" stroke="#666666" stroke-width="1.2" d="M100,-948.95C100,-941.74 100,-933.18 100,-925.07"/>
<polygon fill="#666666" stroke="#666666" stroke-width="1.2" points="103.5,-925.17 100,-915.17 96.5,-925.17 103.5,-925.17"/>
</g>
<!-- SSACombine -->
<g id="node14" class="node">
<title>SSACombine</title>
<g id="a_node14"><a xlink:href="#the-merging-pass-instruction-combining-ssa-combine" xlink:title="SSA Combine">
<path fill="#f9f9f9" stroke="#333333" d="M126.75,-841.25C126.75,-841.25 73.25,-841.25 73.25,-841.25 67.25,-841.25 61.25,-835.25 61.25,-829.25 61.25,-829.25 61.25,-817.25 61.25,-817.25 61.25,-811.25 67.25,-805.25 73.25,-805.25 73.25,-805.25 126.75,-805.25 126.75,-805.25 132.75,-805.25 138.75,-811.25 138.75,-817.25 138.75,-817.25 138.75,-829.25 138.75,-829.25 138.75,-835.25 132.75,-841.25 126.75,-841.25"/>
<text xml:space="preserve" text-anchor="middle" x="100" y="-819.75" font-family="Arial" font-size="10.00">SSA Combine</text>
</a>
</g>
</g>
<!-- PressureRelief&#45;&gt;SSACombine -->
<g id="edge12" class="edge">
<title>PressureRelief&#45;&gt;SSACombine</title>
<path fill="none" stroke="#666666" stroke-width="1.2" d="M100,-876.95C100,-869.74 100,-861.18 100,-853.07"/>
<polygon fill="#666666" stroke="#666666" stroke-width="1.2" points="103.5,-853.17 100,-843.17 96.5,-853.17 103.5,-853.17"/>
</g>
<!-- OutSSA -->
<g id="node15" class="node">
<title>OutSSA</title>
<g id="a_node15"><a xlink:href="#the-final-handover-conventional-ssa-make-conventional-ssa" xlink:title="Out of SSA">
<path fill="#f9f9f9" stroke="#333333" d="M121.12,-769.25C121.12,-769.25 78.88,-769.25 78.88,-769.25 72.88,-769.25 66.88,-763.25 66.88,-757.25 66.88,-757.25 66.88,-745.25 66.88,-745.25 66.88,-739.25 72.88,-733.25 78.88,-733.25 78.88,-733.25 121.12,-733.25 121.12,-733.25 127.12,-733.25 133.12,-739.25 133.12,-745.25 133.12,-745.25 133.12,-757.25 133.12,-757.25 133.12,-763.25 127.12,-769.25 121.12,-769.25"/>
<text xml:space="preserve" text-anchor="middle" x="100" y="-747.75" font-family="Arial" font-size="10.00">Out of SSA</text>
</a>
</g>
</g>
<!-- SSACombine&#45;&gt;OutSSA -->
<g id="edge13" class="edge">
<title>SSACombine&#45;&gt;OutSSA</title>
<path fill="none" stroke="#666666" stroke-width="1.2" d="M100,-804.95C100,-797.74 100,-789.18 100,-781.07"/>
<polygon fill="#666666" stroke="#666666" stroke-width="1.2" points="103.5,-781.17 100,-771.17 96.5,-781.17 103.5,-781.17"/>
</g>
<!-- JumpOpts -->
<g id="node16" class="node">
<title>JumpOpts</title>
<g id="a_node16"><a xlink:href="#the-path-smoother-jump-optimization-jump-opt" xlink:title="Jump Opts">
<path fill="#f9f9f9" stroke="#333333" d="M120,-697.25C120,-697.25 80,-697.25 80,-697.25 74,-697.25 68,-691.25 68,-685.25 68,-685.25 68,-673.25 68,-673.25 68,-667.25 74,-661.25 80,-661.25 80,-661.25 120,-661.25 120,-661.25 126,-661.25 132,-667.25 132,-673.25 132,-673.25 132,-685.25 132,-685.25 132,-691.25 126,-697.25 120,-697.25"/>
<text xml:space="preserve" text-anchor="middle" x="100" y="-675.75" font-family="Arial" font-size="10.00">Jump Opts</text>
</a>
</g>
</g>
<!-- OutSSA&#45;&gt;JumpOpts -->
<g id="edge14" class="edge">
<title>OutSSA&#45;&gt;JumpOpts</title>
<path fill="none" stroke="#666666" stroke-width="1.2" d="M100,-732.95C100,-725.74 100,-717.18 100,-709.07"/>
<polygon fill="#666666" stroke="#666666" stroke-width="1.2" points="103.5,-709.17 100,-699.17 96.5,-709.17 103.5,-709.17"/>
</g>
<!-- Machinize -->
<g id="node17" class="node">
<title>Machinize</title>
<g id="a_node17"><a xlink:href="#handover-to-the-metal-target-translation" xlink:title="Machinize">
<path fill="#fff9c4" stroke="#333333" d="M118.12,-612C118.12,-612 81.88,-612 81.88,-612 75.88,-612 69.88,-606 69.88,-600 69.88,-600 69.88,-588 69.88,-588 69.88,-582 75.88,-576 81.88,-576 81.88,-576 118.12,-576 118.12,-576 124.12,-576 130.12,-582 130.12,-588 130.12,-588 130.12,-600 130.12,-600 130.12,-606 124.12,-612 118.12,-612"/>
<text xml:space="preserve" text-anchor="middle" x="100" y="-590.5" font-family="Arial" font-size="10.00">Machinize</text>
</a>
</g>
</g>
<!-- JumpOpts&#45;&gt;Machinize -->
<g id="edge15" class="edge">
<title>JumpOpts&#45;&gt;Machinize</title>
<path fill="none" stroke="#666666" stroke-width="1.2" d="M100,-661C100,-650.28 100,-636.24 100,-623.86"/>
<polygon fill="#666666" stroke="#666666" stroke-width="1.2" points="103.5,-624.04 100,-614.04 96.5,-624.04 103.5,-624.04"/>
</g>
<!-- BuildLive -->
<g id="node18" class="node">
<title>BuildLive</title>
<g id="a_node18"><a xlink:href="#mapping-existence-live-range-analysis" xlink:title="Build Live Info">
<path fill="#f9f9f9" stroke="#333333" d="M127.12,-540C127.12,-540 72.88,-540 72.88,-540 66.88,-540 60.88,-534 60.88,-528 60.88,-528 60.88,-516 60.88,-516 60.88,-510 66.88,-504 72.88,-504 72.88,-504 127.12,-504 127.12,-504 133.12,-504 139.12,-510 139.12,-516 139.12,-516 139.12,-528 139.12,-528 139.12,-534 133.12,-540 127.12,-540"/>
<text xml:space="preserve" text-anchor="middle" x="100" y="-518.5" font-family="Arial" font-size="10.00">Build Live Info</text>
</a>
</g>
</g>
<!-- Machinize&#45;&gt;BuildLive -->
<g id="edge16" class="edge">
<title>Machinize&#45;&gt;BuildLive</title>
<path fill="none" stroke="#666666" stroke-width="1.2" d="M100,-575.7C100,-568.49 100,-559.93 100,-551.82"/>
<polygon fill="#666666" stroke="#666666" stroke-width="1.2" points="103.5,-551.92 100,-541.92 96.5,-551.92 103.5,-551.92"/>
</g>
<!-- BuildConflicts -->
<g id="node19" class="node">
<title>BuildConflicts</title>
<g id="a_node19"><a xlink:href="#aggressive-register-coalescing-coalesce" xlink:title="Build Register\nConflicts">
<path fill="#f9f9f9" stroke="#333333" d="M126.75,-468C126.75,-468 73.25,-468 73.25,-468 67.25,-468 61.25,-462 61.25,-456 61.25,-456 61.25,-444 61.25,-444 61.25,-438 67.25,-432 73.25,-432 73.25,-432 126.75,-432 126.75,-432 132.75,-432 138.75,-438 138.75,-444 138.75,-444 138.75,-456 138.75,-456 138.75,-462 132.75,-468 126.75,-468"/>
<text xml:space="preserve" text-anchor="middle" x="100" y="-452.5" font-family="Arial" font-size="10.00">Build Register</text>
<text xml:space="preserve" text-anchor="middle" x="100" y="-440.5" font-family="Arial" font-size="10.00">Conflicts</text>
</a>
</g>
</g>
<!-- BuildLive&#45;&gt;BuildConflicts -->
<g id="edge17" class="edge">
<title>BuildLive&#45;&gt;BuildConflicts</title>
<path fill="none" stroke="#666666" stroke-width="1.2" d="M100,-503.7C100,-496.49 100,-487.93 100,-479.82"/>
<polygon fill="#666666" stroke="#666666" stroke-width="1.2" points="103.5,-479.92 100,-469.92 96.5,-479.92 103.5,-479.92"/>
</g>
<!-- Coalesce -->
<g id="node20" class="node">
<title>Coalesce</title>
<path fill="#f9f9f9" stroke="#333333" d="M116.62,-396C116.62,-396 83.38,-396 83.38,-396 77.38,-396 71.38,-390 71.38,-384 71.38,-384 71.38,-372 71.38,-372 71.38,-366 77.38,-360 83.38,-360 83.38,-360 116.62,-360 116.62,-360 122.62,-360 128.62,-366 128.62,-372 128.62,-372 128.62,-384 128.62,-384 128.62,-390 122.62,-396 116.62,-396"/>
<text xml:space="preserve" text-anchor="middle" x="100" y="-374.5" font-family="Arial" font-size="10.00">Coalesce</text>
</g>
<!-- BuildConflicts&#45;&gt;Coalesce -->
<g id="edge18" class="edge">
<title>BuildConflicts&#45;&gt;Coalesce</title>
<path fill="none" stroke="#666666" stroke-width="1.2" d="M100,-431.7C100,-424.49 100,-415.93 100,-407.82"/>
<polygon fill="#666666" stroke="#666666" stroke-width="1.2" points="103.5,-407.92 100,-397.92 96.5,-407.92 103.5,-407.92"/>
</g>
<!-- RA -->
<g id="node21" class="node">
<title>RA</title>
<g id="a_node21"><a xlink:href="#the-allocation-war-linear-scan-ra" xlink:title="Register Allocator\n(Priority Linear Scan)">
<path fill="#ffebee" stroke="#333333" d="M141.75,-324C141.75,-324 58.25,-324 58.25,-324 52.25,-324 46.25,-318 46.25,-312 46.25,-312 46.25,-300 46.25,-300 46.25,-294 52.25,-288 58.25,-288 58.25,-288 141.75,-288 141.75,-288 147.75,-288 153.75,-294 153.75,-300 153.75,-300 153.75,-312 153.75,-312 153.75,-318 147.75,-324 141.75,-324"/>
<text xml:space="preserve" text-anchor="middle" x="100" y="-308.5" font-family="Arial" font-size="10.00">Register Allocator</text>
<text xml:space="preserve" text-anchor="middle" x="100" y="-296.5" font-family="Arial" font-size="10.00">(Priority Linear Scan)</text>
</a>
</g>
</g>
<!-- Coalesce&#45;&gt;RA -->
<g id="edge19" class="edge">
<title>Coalesce&#45;&gt;RA</title>
<path fill="none" stroke="#666666" stroke-width="1.2" d="M100,-359.7C100,-352.49 100,-343.93 100,-335.82"/>
<polygon fill="#666666" stroke="#666666" stroke-width="1.2" points="103.5,-335.92 100,-325.92 96.5,-335.92 103.5,-335.92"/>
</g>
<!-- Combine -->
<g id="node22" class="node">
<title>Combine</title>
<path fill="#f9f9f9" stroke="#333333" d="M132.38,-252C132.38,-252 67.62,-252 67.62,-252 61.62,-252 55.62,-246 55.62,-240 55.62,-240 55.62,-228 55.62,-228 55.62,-222 61.62,-216 67.62,-216 67.62,-216 132.38,-216 132.38,-216 138.38,-216 144.38,-222 144.38,-228 144.38,-228 144.38,-240 144.38,-240 144.38,-246 138.38,-252 132.38,-252"/>
<text xml:space="preserve" text-anchor="middle" x="100" y="-236.5" font-family="Arial" font-size="10.00">Combine</text>
<text xml:space="preserve" text-anchor="middle" x="100" y="-224.5" font-family="Arial" font-size="10.00">(Code Selection)</text>
</g>
<!-- RA&#45;&gt;Combine -->
<g id="edge20" class="edge">
<title>RA&#45;&gt;Combine</title>
<path fill="none" stroke="#666666" stroke-width="1.2" d="M100,-287.7C100,-280.49 100,-271.93 100,-263.82"/>
<polygon fill="#666666" stroke="#666666" stroke-width="1.2" points="103.5,-263.92 100,-253.92 96.5,-263.92 103.5,-263.92"/>
</g>
<!-- DCE2 -->
<g id="node23" class="node">
<title>DCE2</title>
<path fill="#f9f9f9" stroke="#333333" d="M120.75,-180C120.75,-180 79.25,-180 79.25,-180 73.25,-180 67.25,-174 67.25,-168 67.25,-168 67.25,-156 67.25,-156 67.25,-150 73.25,-144 79.25,-144 79.25,-144 120.75,-144 120.75,-144 126.75,-144 132.75,-150 132.75,-156 132.75,-156 132.75,-168 132.75,-168 132.75,-174 126.75,-180 120.75,-180"/>
<text xml:space="preserve" text-anchor="middle" x="100" y="-164.5" font-family="Arial" font-size="10.00">Dead Code</text>
<text xml:space="preserve" text-anchor="middle" x="100" y="-152.5" font-family="Arial" font-size="10.00">Elimination</text>
</g>
<!-- Combine&#45;&gt;DCE2 -->
<g id="edge21" class="edge">
<title>Combine&#45;&gt;DCE2</title>
<path fill="none" stroke="#666666" stroke-width="1.2" d="M100,-215.7C100,-208.49 100,-199.93 100,-191.82"/>
<polygon fill="#666666" stroke="#666666" stroke-width="1.2" points="103.5,-191.92 100,-181.92 96.5,-191.92 103.5,-191.92"/>
</g>
<!-- GenMachine -->
<g id="node24" class="node">
<title>GenMachine</title>
<path fill="#fff9c4" stroke="#333333" d="M135.75,-108C135.75,-108 64.25,-108 64.25,-108 58.25,-108 52.25,-102 52.25,-96 52.25,-96 52.25,-84 52.25,-84 52.25,-78 58.25,-72 64.25,-72 64.25,-72 135.75,-72 135.75,-72 141.75,-72 147.75,-78 147.75,-84 147.75,-84 147.75,-96 147.75,-96 147.75,-102 141.75,-108 135.75,-108"/>
<text xml:space="preserve" text-anchor="middle" x="100" y="-92.5" font-family="Arial" font-size="10.00">Generate Machine</text>
<text xml:space="preserve" text-anchor="middle" x="100" y="-80.5" font-family="Arial" font-size="10.00">Instructions</text>
</g>
<!-- DCE2&#45;&gt;GenMachine -->
<g id="edge22" class="edge">
<title>DCE2&#45;&gt;GenMachine</title>
<path fill="none" stroke="#666666" stroke-width="1.2" d="M100,-143.7C100,-136.49 100,-127.93 100,-119.82"/>
<polygon fill="#666666" stroke="#666666" stroke-width="1.2" points="103.5,-119.92 100,-109.92 96.5,-119.92 103.5,-119.92"/>
</g>
<!-- GenMachine&#45;&gt;MachineCode -->
<g id="edge23" class="edge">
<title>GenMachine&#45;&gt;MachineCode</title>
<path fill="none" stroke="#666666" stroke-width="1.2" d="M100,-71.7C100,-64.49 100,-55.93 100,-47.82"/>
<polygon fill="#666666" stroke="#666666" stroke-width="1.2" points="103.5,-47.92 100,-37.92 96.5,-47.92 103.5,-47.92"/>
</g>
</g>
</svg>
